<svg xmlns="http://www.w3.org/2000/svg" xmlns:xlink="http://www.w3.org/1999/xlink" version="1.2" width="175.11mm" height="16.96mm" viewBox="8.4758 -0.0000 99.6446 9.6538">
<style type="text/css">
<![CDATA[
tspan { white-space: pre; }
]]>
</style>
<g transform="translate(8.5358, 9.6038)">
<line stroke-linejoin="round" stroke-linecap="round" stroke-width="0.1000" stroke="currentColor" x1="0.0500" y1="0" x2="99.5346" y2="0"/>
</g>
<g transform="translate(8.5358, 8.6038)">
<line stroke-linejoin="round" stroke-linecap="round" stroke-width="0.1000" stroke="currentColor" x1="0.0500" y1="0" x2="99.5346" y2="0"/>
</g>
<g transform="translate(8.5358, 7.6038)">
<line stroke-linejoin="round" stroke-linecap="round" stroke-width="0.1000" stroke="currentColor" x1="0.0500" y1="0" x2="99.5346" y2="0"/>
</g>
<g transform="translate(8.5358, 6.6038)">
<line stroke-linejoin="round" stroke-linecap="round" stroke-width="0.1000" stroke="currentColor" x1="0.0500" y1="0" x2="99.5346" y2="0"/>
</g>
<g transform="translate(8.5358, 5.6038)">
<line stroke-linejoin="round" stroke-linecap="round" stroke-width="0.1000" stroke="currentColor" x1="0.0500" y1="0" x2="99.5346" y2="0"/>
</g>
<g transform="translate(107.9305, 7.6038)">
<rect x="0.0000" y="-2.0000" width="0.1900" height="4.0000" ry="0.0000" fill="currentColor"/>
</g>
<g transform="translate(78.5876, 7.6038)">
<rect x="-0.0650" y="-2.8100" width="0.1300" height="2.1239" ry="0.0400" fill="currentColor"/>
</g>
<g transform="translate(77.3484, 7.1038)">
<path transform="scale(0.0040, -0.0040)" d="M218 136c55 0 108 -28 108 -89c0 -71 -55 -121 -102 -149c-35 -21 -75 -34 -116 -34c-55 0 -108 28 -108 89c0 71 55 121 102 149c35 21 75 34 116 34z" fill="currentColor"/>
</g>
<g transform="translate(77.3484, 1.6038)">
<text font-family="serif" font-size="2.2001" text-anchor="start" fill="currentColor">
<tspan>R</tspan>
</text>
</g>
<g transform="translate(69.5065, 7.6038)">
<rect x="-0.0650" y="-2.8100" width="0.1300" height="2.1239" ry="0.0400" fill="currentColor"/>
</g>
<g transform="translate(68.2673, 7.1038)">
<path transform="scale(0.0040, -0.0040)" d="M218 136c55 0 108 -28 108 -89c0 -71 -55 -121 -102 -149c-35 -21 -75 -34 -116 -34c-55 0 -108 28 -108 89c0 71 55 121 102 149c35 21 75 34 116 34z" fill="currentColor"/>
</g>
<g transform="translate(68.2673, 1.6038)">
<text font-family="serif" font-size="2.2001" text-anchor="start" fill="currentColor">
<tspan>L</tspan>
</text>
</g>
<g transform="translate(60.4254, 7.6038)">
<rect x="-0.0650" y="-2.8100" width="0.1300" height="2.1239" ry="0.0400" fill="currentColor"/>
</g>
<g transform="translate(59.1862, 7.1038)">
<path transform="scale(0.0040, -0.0040)" d="M218 136c55 0 108 -28 108 -89c0 -71 -55 -121 -102 -149c-35 -21 -75 -34 -116 -34c-55 0 -108 28 -108 89c0 71 55 121 102 149c35 21 75 34 116 34z" fill="currentColor"/>
</g>
<g transform="translate(59.1862, 1.6038)">
<text font-family="serif" font-size="2.2001" text-anchor="start" fill="currentColor">
<tspan>R</tspan>
</text>
</g>
<g transform="translate(20.2928, 4.0894)">
<text font-family="serif" font-style="italic" font-size="1.7461" text-anchor="start" fill="currentColor">
<tspan>3</tspan>
</text>
</g>
<g transform="translate(11.7100, 4.7938)">
<polygon stroke-linejoin="round" stroke-linecap="round" stroke-width="0.0800" fill="currentColor" stroke="currentColor" points="18.2522 -0.2000 18.2522 0.2000 0.0400 0.2000 0.0400 -0.2000"/>
</g>
<g transform="translate(68.9432, 4.0894)">
<text font-family="serif" font-style="italic" font-size="1.7461" text-anchor="start" fill="currentColor">
<tspan>3</tspan>
</text>
</g>
<g transform="translate(60.3604, 4.7938)">
<polygon stroke-linejoin="round" stroke-linecap="round" stroke-width="0.0800" fill="currentColor" stroke="currentColor" points="18.2522 -0.2000 18.2522 0.2000 0.0400 0.2000 0.0400 -0.2000"/>
</g>
<g transform="translate(87.6687, 7.6038)">
<rect x="-0.0650" y="-3.6667" width="0.1300" height="2.9806" ry="0.0400" fill="currentColor"/>
</g>
<g transform="translate(86.4295, 7.1038)">
<path transform="scale(0.0040, -0.0040)" d="M218 136c55 0 108 -28 108 -89c0 -71 -55 -121 -102 -149c-35 -21 -75 -34 -116 -34c-55 0 -108 28 -108 89c0 71 55 121 102 149c35 21 75 34 116 34z" fill="currentColor"/>
</g>
<g transform="translate(86.4295, 1.6038)">
<text font-family="serif" font-size="2.2001" text-anchor="start" fill="currentColor">
<tspan>L</tspan>
</text>
</g>
<g transform="translate(20.8561, 7.6038)">
<rect x="-0.0650" y="-2.8100" width="0.1300" height="2.1239" ry="0.0400" fill="currentColor"/>
</g>
<g transform="translate(19.6169, 7.1038)">
<path transform="scale(0.0040, -0.0040)" d="M218 136c55 0 108 -28 108 -89c0 -71 -55 -121 -102 -149c-35 -21 -75 -34 -116 -34c-55 0 -108 28 -108 89c0 71 55 121 102 149c35 21 75 34 116 34z" fill="currentColor"/>
</g>
<g transform="translate(19.6169, 1.6038)">
<text font-family="serif" font-size="2.2001" text-anchor="start" fill="currentColor">
<tspan>L</tspan>
</text>
</g>
<g transform="translate(10.5358, 1.6038)">
<text font-family="serif" font-size="2.2001" text-anchor="start" fill="currentColor">
<tspan>R</tspan>
</text>
</g>
<g transform="translate(11.7750, 7.6038)">
<rect x="-0.0650" y="-2.8100" width="0.1300" height="2.1239" ry="0.0400" fill="currentColor"/>
</g>
<g transform="translate(10.5358, 7.1038)">
<path transform="scale(0.0040, -0.0040)" d="M218 136c55 0 108 -28 108 -89c0 -71 -55 -121 -102 -149c-35 -21 -75 -34 -116 -34c-55 0 -108 28 -108 89c0 71 55 121 102 149c35 21 75 34 116 34z" fill="currentColor"/>
</g>
<g transform="translate(39.0183, 7.6038)">
<rect x="-0.0650" y="-3.6667" width="0.1300" height="2.9806" ry="0.0400" fill="currentColor"/>
</g>
<g transform="translate(37.7791, 7.1038)">
<path transform="scale(0.0040, -0.0040)" d="M218 136c55 0 108 -28 108 -89c0 -71 -55 -121 -102 -149c-35 -21 -75 -34 -116 -34c-55 0 -108 28 -108 89c0 71 55 121 102 149c35 21 75 34 116 34z" fill="currentColor"/>
</g>
<g transform="translate(37.7791, 1.6038)">
<text font-family="serif" font-size="2.2001" text-anchor="start" fill="currentColor">
<tspan>L</tspan>
</text>
</g>
<g transform="translate(8.4758, 7.6038)">
<rect x="0.0000" y="-2.0500" width="0.1600" height="4.1000" ry="0.0500" fill="currentColor"/>
</g>
<g transform="translate(29.9372, 7.6038)">
<rect x="-0.0650" y="-2.8100" width="0.1300" height="2.1239" ry="0.0400" fill="currentColor"/>
</g>
<g transform="translate(28.6980, 7.1038)">
<path transform="scale(0.0040, -0.0040)" d="M218 136c55 0 108 -28 108 -89c0 -71 -55 -121 -102 -149c-35 -21 -75 -34 -116 -34c-55 0 -108 28 -108 89c0 71 55 121 102 149c35 21 75 34 116 34z" fill="currentColor"/>
</g>
<g transform="translate(28.6980, 1.6038)">
<text font-family="serif" font-size="2.2001" text-anchor="start" fill="currentColor">
<tspan>R</tspan>
</text>
</g>
</svg>
