<svg xmlns="http://www.w3.org/2000/svg" xmlns:xlink="http://www.w3.org/1999/xlink" version="1.2" width="175.11mm" height="16.96mm" viewBox="8.4758 0.0000 99.6446 9.6538">
<style type="text/css">
<![CDATA[
tspan { white-space: pre; }
]]>
</style>
<g transform="translate(8.5358, 9.6038)">
<line stroke-linejoin="round" stroke-linecap="round" stroke-width="0.1000" stroke="currentColor" x1="0.0500" y1="0" x2="99.5346" y2="0"/>
</g>
<g transform="translate(8.5358, 8.6038)">
<line stroke-linejoin="round" stroke-linecap="round" stroke-width="0.1000" stroke="currentColor" x1="0.0500" y1="0" x2="99.5346" y2="0"/>
</g>
<g transform="translate(8.5358, 7.6038)">
<line stroke-linejoin="round" stroke-linecap="round" stroke-width="0.1000" stroke="currentColor" x1="0.0500" y1="0" x2="99.5346" y2="0"/>
</g>
<g transform="translate(8.5358, 6.6038)">
<line stroke-linejoin="round" stroke-linecap="round" stroke-width="0.1000" stroke="currentColor" x1="0.0500" y1="0" x2="99.5346" y2="0"/>
</g>
<g transform="translate(8.5358, 5.6038)">
<line stroke-linejoin="round" stroke-linecap="round" stroke-width="0.1000" stroke="currentColor" x1="0.0500" y1="0" x2="99.5346" y2="0"/>
</g>
<g transform="translate(107.9305, 7.6038)">
<rect x="0.0000" y="-2.0000" width="0.1900" height="4.0000" ry="0.0000" fill="currentColor"/>
</g>
<g transform="translate(87.7128, 7.6038)">
<rect x="-0.0650" y="-2.8100" width="0.1300" height="2.1239" ry="0.0400" fill="currentColor"/>
</g>
<g transform="translate(81.8092, 1.6038)">
<text font-family="serif" font-size="1.5555" text-anchor="start" fill="currentColor">
<tspan>R</tspan>
</text>
</g>
<g transform="translate(81.8092, 7.1038)">
<path transform="scale(0.0028, -0.0028)" d="M208 139c61 0 117 -33 117 -99c0 -71 -52 -119 -99 -147c-34 -20 -71 -32 -110 -32c-61 0 -116 33 -116 99c0 71 51 119 98 147c34 20 71 32 110 32z" fill="currentColor"/>
</g>
<g transform="translate(82.6621, 7.6038)">
<rect x="-0.0650" y="-3.1000" width="0.1300" height="2.4856" ry="0.0400" fill="currentColor"/>
</g>
<g transform="translate(82.7271, 4.5438)">
<path transform="scale(0.0028, -0.0028)" d="M0 0c0 -196 207 -334 207 -530c0 -71 -15 -140 -41 -206c-5 -10 -14 -13 -23 -13c-14 0 -28 10 -28 26c0 2 1 3 1 5c26 59 42 123 42 188c0 101 -90 205 -158 280h-21v250h21z" fill="currentColor"/>
</g>
<g transform="translate(86.4736, 1.6038)">
<text font-family="serif" font-size="2.2001" text-anchor="start" fill="currentColor">
<tspan>L</tspan>
</text>
</g>
<g transform="translate(86.4736, 7.1038)">
<path transform="scale(0.0040, -0.0040)" d="M218 136c55 0 108 -28 108 -89c0 -71 -55 -121 -102 -149c-35 -21 -75 -34 -116 -34c-55 0 -108 28 -108 89c0 71 55 121 102 149c35 21 75 34 116 34z" fill="currentColor"/>
</g>
<g transform="translate(57.9181, 7.1038)">
<path transform="scale(0.0028, -0.0028)" d="M208 139c61 0 117 -33 117 -99c0 -71 -52 -119 -99 -147c-34 -20 -71 -32 -110 -32c-61 0 -116 33 -116 99c0 71 51 119 98 147c34 20 71 32 110 32z" fill="currentColor"/>
</g>
<g transform="translate(74.5032, 7.6038)">
<rect x="-0.0650" y="-2.8100" width="0.1300" height="2.1239" ry="0.0400" fill="currentColor"/>
</g>
<g transform="translate(73.2640, 7.1038)">
<path transform="scale(0.0040, -0.0040)" d="M218 136c55 0 108 -28 108 -89c0 -71 -55 -121 -102 -149c-35 -21 -75 -34 -116 -34c-55 0 -108 28 -108 89c0 71 55 121 102 149c35 21 75 34 116 34z" fill="currentColor"/>
</g>
<g transform="translate(73.2640, 1.6038)">
<text font-family="serif" font-size="2.2001" text-anchor="start" fill="currentColor">
<tspan>R</tspan>
</text>
</g>
<g transform="translate(63.8217, 7.6038)">
<rect x="-0.0650" y="-2.8100" width="0.1300" height="2.1239" ry="0.0400" fill="currentColor"/>
</g>
<g transform="translate(62.5825, 7.1038)">
<path transform="scale(0.0040, -0.0040)" d="M218 136c55 0 108 -28 108 -89c0 -71 -55 -121 -102 -149c-35 -21 -75 -34 -116 -34c-55 0 -108 28 -108 89c0 71 55 121 102 149c35 21 75 34 116 34z" fill="currentColor"/>
</g>
<g transform="translate(62.5825, 1.6038)">
<text font-family="serif" font-size="2.2001" text-anchor="start" fill="currentColor">
<tspan>R</tspan>
</text>
</g>
<g transform="translate(58.8360, 4.5438)">
<path transform="scale(0.0028, -0.0028)" d="M0 0c0 -196 207 -334 207 -530c0 -71 -15 -140 -41 -206c-5 -10 -14 -13 -23 -13c-14 0 -28 10 -28 26c0 2 1 3 1 5c26 59 42 123 42 188c0 101 -90 205 -158 280h-21v250h21z" fill="currentColor"/>
</g>
<g transform="translate(58.7710, 7.6038)">
<rect x="-0.0650" y="-3.1000" width="0.1300" height="2.4856" ry="0.0400" fill="currentColor"/>
</g>
<g transform="translate(10.1358, 7.6038)">
<path stroke-width="0.0800" stroke-linejoin="round" stroke-linecap="round" stroke="currentColor" fill="currentColor" d="M0.4494 0.4309C1.5425 1.6409 4.1459 1.7218 5.3030 0.5818L5.3030 0.5818C4.1496 1.6019 1.5462 1.5209 0.4494 0.4309z"/>
</g>
<g transform="translate(15.9744, 4.7938)">
<polygon stroke-linejoin="round" stroke-linecap="round" stroke-width="0.0800" fill="currentColor" stroke="currentColor" points="10.7715 -0.2000 10.7715 0.2000 0.0400 0.2000 0.0400 -0.2000"/>
</g>
<g transform="translate(34.0269, 7.6038)">
<path stroke-width="0.0800" stroke-linejoin="round" stroke-linecap="round" stroke="currentColor" fill="currentColor" d="M0.4494 0.4309C1.5425 1.6409 4.1459 1.7218 5.3030 0.5818L5.3030 0.5818C4.1496 1.6019 1.5462 1.5209 0.4494 0.4309z"/>
</g>
<g transform="translate(39.8655, 4.7938)">
<polygon stroke-linejoin="round" stroke-linecap="round" stroke-width="0.0800" fill="currentColor" stroke="currentColor" points="10.7715 -0.2000 10.7715 0.2000 0.0400 0.2000 0.0400 -0.2000"/>
</g>
<g transform="translate(57.9181, 7.6038)">
<path stroke-width="0.0800" stroke-linejoin="round" stroke-linecap="round" stroke="currentColor" fill="currentColor" d="M0.4494 0.4309C1.5425 1.6409 4.1459 1.7218 5.3030 0.5818L5.3030 0.5818C4.1496 1.6019 1.5462 1.5209 0.4494 0.4309z"/>
</g>
<g transform="translate(63.7567, 4.7938)">
<polygon stroke-linejoin="round" stroke-linecap="round" stroke-width="0.0800" fill="currentColor" stroke="currentColor" points="10.7715 -0.2000 10.7715 0.2000 0.0400 0.2000 0.0400 -0.2000"/>
</g>
<g transform="translate(81.8092, 7.6038)">
<path stroke-width="0.0800" stroke-linejoin="round" stroke-linecap="round" stroke="currentColor" fill="currentColor" d="M0.4494 0.4309C1.5425 1.6409 4.1459 1.7218 5.3030 0.5818L5.3030 0.5818C4.1496 1.6019 1.5462 1.5209 0.4494 0.4309z"/>
</g>
<g transform="translate(87.6478, 4.7938)">
<polygon stroke-linejoin="round" stroke-linecap="round" stroke-width="0.0800" fill="currentColor" stroke="currentColor" points="10.7715 -0.2000 10.7715 0.2000 0.0400 0.2000 0.0400 -0.2000"/>
</g>
<g transform="translate(98.3943, 7.6038)">
<rect x="-0.0650" y="-2.8100" width="0.1300" height="2.1239" ry="0.0400" fill="currentColor"/>
</g>
<g transform="translate(97.1551, 7.1038)">
<path transform="scale(0.0040, -0.0040)" d="M218 136c55 0 108 -28 108 -89c0 -71 -55 -121 -102 -149c-35 -21 -75 -34 -116 -34c-55 0 -108 28 -108 89c0 71 55 121 102 149c35 21 75 34 116 34z" fill="currentColor"/>
</g>
<g transform="translate(97.1551, 1.6038)">
<text font-family="serif" font-size="2.2001" text-anchor="start" fill="currentColor">
<tspan>L</tspan>
</text>
</g>
<g transform="translate(57.9181, 1.6038)">
<text font-family="serif" font-size="1.5555" text-anchor="start" fill="currentColor">
<tspan>L</tspan>
</text>
</g>
<g transform="translate(25.4817, 7.1038)">
<path transform="scale(0.0040, -0.0040)" d="M218 136c55 0 108 -28 108 -89c0 -71 -55 -121 -102 -149c-35 -21 -75 -34 -116 -34c-55 0 -108 28 -108 89c0 71 55 121 102 149c35 21 75 34 116 34z" fill="currentColor"/>
</g>
<g transform="translate(25.4817, 1.6038)">
<text font-family="serif" font-size="2.2001" text-anchor="start" fill="currentColor">
<tspan>R</tspan>
</text>
</g>
<g transform="translate(16.0394, 7.6038)">
<rect x="-0.0650" y="-2.8100" width="0.1300" height="2.1239" ry="0.0400" fill="currentColor"/>
</g>
<g transform="translate(14.8002, 7.1038)">
<path transform="scale(0.0040, -0.0040)" d="M218 136c55 0 108 -28 108 -89c0 -71 -55 -121 -102 -149c-35 -21 -75 -34 -116 -34c-55 0 -108 28 -108 89c0 71 55 121 102 149c35 21 75 34 116 34z" fill="currentColor"/>
</g>
<g transform="translate(14.8002, 1.6038)">
<text font-family="serif" font-size="2.2001" text-anchor="start" fill="currentColor">
<tspan>R</tspan>
</text>
</g>
<g transform="translate(26.7209, 7.6038)">
<rect x="-0.0650" y="-2.8100" width="0.1300" height="2.1239" ry="0.0400" fill="currentColor"/>
</g>
<g transform="translate(11.0537, 4.5438)">
<path transform="scale(0.0028, -0.0028)" d="M0 0c0 -196 207 -334 207 -530c0 -71 -15 -140 -41 -206c-5 -10 -14 -13 -23 -13c-14 0 -28 10 -28 26c0 2 1 3 1 5c26 59 42 123 42 188c0 101 -90 205 -158 280h-21v250h21z" fill="currentColor"/>
</g>
<g transform="translate(10.9887, 7.6038)">
<rect x="-0.0650" y="-3.1000" width="0.1300" height="2.4856" ry="0.0400" fill="currentColor"/>
</g>
<g transform="translate(10.1358, 7.1038)">
<path transform="scale(0.0028, -0.0028)" d="M208 139c61 0 117 -33 117 -99c0 -71 -52 -119 -99 -147c-34 -20 -71 -32 -110 -32c-61 0 -116 33 -116 99c0 71 51 119 98 147c34 20 71 32 110 32z" fill="currentColor"/>
</g>
<g transform="translate(10.1358, 1.6038)">
<text font-family="serif" font-size="1.5555" text-anchor="start" fill="currentColor">
<tspan>L</tspan>
</text>
</g>
<g transform="translate(8.4758, 7.6038)">
<rect x="0.0000" y="-2.0500" width="0.1600" height="4.1000" ry="0.0500" fill="currentColor"/>
</g>
<g transform="translate(50.6121, 7.6038)">
<rect x="-0.0650" y="-2.8100" width="0.1300" height="2.1239" ry="0.0400" fill="currentColor"/>
</g>
<g transform="translate(49.3729, 7.1038)">
<path transform="scale(0.0040, -0.0040)" d="M218 136c55 0 108 -28 108 -89c0 -71 -55 -121 -102 -149c-35 -21 -75 -34 -116 -34c-55 0 -108 28 -108 89c0 71 55 121 102 149c35 21 75 34 116 34z" fill="currentColor"/>
</g>
<g transform="translate(49.3729, 1.6038)">
<text font-family="serif" font-size="2.2001" text-anchor="start" fill="currentColor">
<tspan>L</tspan>
</text>
</g>
<g transform="translate(39.9305, 7.6038)">
<rect x="-0.0650" y="-2.8100" width="0.1300" height="2.1239" ry="0.0400" fill="currentColor"/>
</g>
<g transform="translate(38.6913, 7.1038)">
<path transform="scale(0.0040, -0.0040)" d="M218 136c55 0 108 -28 108 -89c0 -71 -55 -121 -102 -149c-35 -21 -75 -34 -116 -34c-55 0 -108 28 -108 89c0 71 55 121 102 149c35 21 75 34 116 34z" fill="currentColor"/>
</g>
<g transform="translate(38.6913, 1.6038)">
<text font-family="serif" font-size="2.2001" text-anchor="start" fill="currentColor">
<tspan>L</tspan>
</text>
</g>
<g transform="translate(34.9448, 4.5438)">
<path transform="scale(0.0028, -0.0028)" d="M0 0c0 -196 207 -334 207 -530c0 -71 -15 -140 -41 -206c-5 -10 -14 -13 -23 -13c-14 0 -28 10 -28 26c0 2 1 3 1 5c26 59 42 123 42 188c0 101 -90 205 -158 280h-21v250h21z" fill="currentColor"/>
</g>
<g transform="translate(34.8798, 7.6038)">
<rect x="-0.0650" y="-3.1000" width="0.1300" height="2.4856" ry="0.0400" fill="currentColor"/>
</g>
<g transform="translate(34.0269, 7.1038)">
<path transform="scale(0.0028, -0.0028)" d="M208 139c61 0 117 -33 117 -99c0 -71 -52 -119 -99 -147c-34 -20 -71 -32 -110 -32c-61 0 -116 33 -116 99c0 71 51 119 98 147c34 20 71 32 110 32z" fill="currentColor"/>
</g>
<g transform="translate(34.0269, 1.6038)">
<text font-family="serif" font-size="1.5555" text-anchor="start" fill="currentColor">
<tspan>R</tspan>
</text>
</g>
</svg>
