<svg xmlns="http://www.w3.org/2000/svg" xmlns:xlink="http://www.w3.org/1999/xlink" version="1.2" width="210.00mm" height="297.00mm" viewBox="0 0 119.5016 169.0094">
<style type="text/css">
<![CDATA[
tspan { white-space: pre; }
]]>
</style>
<!-- Page: 1/1 -->
<g transform="translate(14.2264, 13.4491)">
<line stroke-linejoin="round" stroke-linecap="round" stroke-width="0.1000" stroke="currentColor" x1="0.0500" y1="0" x2="99.5346" y2="0"/>
</g>
<g transform="translate(14.2264, 12.4491)">
<line stroke-linejoin="round" stroke-linecap="round" stroke-width="0.1000" stroke="currentColor" x1="0.0500" y1="0" x2="99.5346" y2="0"/>
</g>
<g transform="translate(14.2264, 11.4491)">
<line stroke-linejoin="round" stroke-linecap="round" stroke-width="0.1000" stroke="currentColor" x1="0.0500" y1="0" x2="99.5346" y2="0"/>
</g>
<g transform="translate(14.2264, 10.4491)">
<line stroke-linejoin="round" stroke-linecap="round" stroke-width="0.1000" stroke="currentColor" x1="0.0500" y1="0" x2="99.5346" y2="0"/>
</g>
<g transform="translate(14.2264, 9.4491)">
<line stroke-linejoin="round" stroke-linecap="round" stroke-width="0.1000" stroke="currentColor" x1="0.0500" y1="0" x2="99.5346" y2="0"/>
</g>
<g transform="translate(113.6210, 11.4491)">
<rect x="0.0000" y="-2.0000" width="0.1900" height="4.0000" ry="0.0000" fill="currentColor"/>
</g>
<g transform="translate(79.9410, 10.9491)">
<path transform="scale(0.0040, -0.0040)" d="M218 136c55 0 108 -28 108 -89c0 -71 -55 -121 -102 -149c-35 -21 -75 -34 -116 -34c-55 0 -108 28 -108 89c0 71 55 121 102 149c35 21 75 34 116 34z" fill="currentColor"/>
</g>
<g transform="translate(74.3444, 11.4491)">
<rect x="-0.0650" y="-3.5000" width="0.1300" height="2.8139" ry="0.0400" fill="currentColor"/>
</g>
<g transform="translate(79.9410, 5.4491)">
<text font-family="serif" font-size="2.2001" text-anchor="start" fill="currentColor">
<tspan>R</tspan>
</text>
</g>
<g transform="translate(73.1052, 10.9491)">
<path transform="scale(0.0040, -0.0040)" d="M218 136c55 0 108 -28 108 -89c0 -71 -55 -121 -102 -149c-35 -21 -75 -34 -116 -34c-55 0 -108 28 -108 89c0 71 55 121 102 149c35 21 75 34 116 34z" fill="currentColor"/>
</g>
<g transform="translate(81.1803, 11.4491)">
<rect x="-0.0650" y="-3.5000" width="0.1300" height="2.8139" ry="0.0400" fill="currentColor"/>
</g>
<g transform="translate(86.7769, 5.4491)">
<text font-family="serif" font-size="2.2001" text-anchor="start" fill="currentColor">
<tspan>L</tspan>
</text>
</g>
<g transform="translate(86.7769, 10.9491)">
<path transform="scale(0.0040, -0.0040)" d="M218 136c55 0 108 -28 108 -89c0 -71 -55 -121 -102 -149c-35 -21 -75 -34 -116 -34c-55 0 -108 28 -108 89c0 71 55 121 102 149c35 21 75 34 116 34z" fill="currentColor"/>
</g>
<g transform="translate(88.0161, 11.4491)">
<rect x="-0.0650" y="-3.5000" width="0.1300" height="2.8139" ry="0.0400" fill="currentColor"/>
</g>
<g transform="translate(66.2694, 10.9491)">
<path transform="scale(0.0040, -0.0040)" d="M218 136c55 0 108 -28 108 -89c0 -71 -55 -121 -102 -149c-35 -21 -75 -34 -116 -34c-55 0 -108 28 -108 89c0 71 55 121 102 149c35 21 75 34 116 34z" fill="currentColor"/>
</g>
<g transform="translate(15.8264, 11.4491)">
<path stroke-width="0.0800" stroke-linejoin="round" stroke-linecap="round" stroke="currentColor" fill="currentColor" d="M0.4460 0.4673C1.3046 1.6318 3.0868 1.7071 4.0163 0.6183L4.0163 0.6183C3.0918 1.5872 1.3097 1.5119 0.4460 0.4673z"/>
</g>
<g transform="translate(62.8869, 10.9491)">
<path transform="scale(0.0028, -0.0028)" d="M208 139c61 0 117 -33 117 -99c0 -71 -52 -119 -99 -147c-34 -20 -71 -32 -110 -32c-61 0 -116 33 -116 99c0 71 51 119 98 147c34 20 71 32 110 32z" fill="currentColor"/>
</g>
<g transform="translate(63.7398, 11.4491)">
<rect x="-0.0650" y="-3.1000" width="0.1300" height="2.4856" ry="0.0400" fill="currentColor"/>
</g>
<g transform="translate(63.8048, 8.3891)">
<path transform="scale(0.0028, -0.0028)" d="M0 -212v-213v213c0 -114 85 -201 146 -295c4 13 6 26 6 40c0 94 -87 188 -152 255zM0 0c0 -177 201 -290 201 -467c0 -33 -9 -66 -23 -96c18 -36 29 -74 29 -116c0 -63 -15 -125 -41 -182c-5 -10 -14 -13 -23 -13c-14 0 -28 10 -28 26c0 2 1 3 1 5c26 51 42 107 42 164
c0 95 -90 188 -158 254v-75h-21v500h21z" fill="currentColor"/>
</g>
<g transform="translate(66.2694, 5.4491)">
<text font-family="serif" font-size="2.2001" text-anchor="start" fill="currentColor">
<tspan>R</tspan>
</text>
</g>
<g transform="translate(62.8869, 5.4491)">
<text font-family="serif" font-size="1.5555" text-anchor="start" fill="currentColor">
<tspan>L</tspan>
</text>
</g>
<g transform="translate(67.5086, 11.4491)">
<rect x="-0.0650" y="-3.5000" width="0.1300" height="2.8139" ry="0.0400" fill="currentColor"/>
</g>
<g transform="translate(73.1052, 5.4491)">
<text font-family="serif" font-size="2.2001" text-anchor="start" fill="currentColor">
<tspan>L</tspan>
</text>
</g>
<g transform="translate(73.7573, 14.2491)">
<path transform="scale(0.0040, -0.0040)" d="M-211 88c-8 2 -14 9 -14 18c0 11 10 21 23 18l408 -105c13 0 19 -6 19 -19s-6 -19 -19 -19l-408 -105c-13 -3 -23 7 -23 18c0 9 6 16 14 18l251 65l140 23l-140 23z" fill="currentColor"/>
</g>
<g transform="translate(67.4436, 7.9491)">
<polygon stroke-linejoin="round" stroke-linecap="round" stroke-width="0.0800" fill="currentColor" stroke="currentColor" points="20.5975 -0.2000 20.5975 0.2000 0.0400 0.2000 0.0400 -0.2000"/>
</g>
<g transform="translate(67.4436, 8.7591)">
<polygon stroke-linejoin="round" stroke-linecap="round" stroke-width="0.0800" fill="currentColor" stroke="currentColor" points="20.5975 -0.2000 20.5975 0.2000 0.0400 0.2000 0.0400 -0.2000"/>
</g>
<g transform="translate(92.2456, 11.4491)">
<path stroke-width="0.0800" stroke-linejoin="round" stroke-linecap="round" stroke="currentColor" fill="currentColor" d="M0.4460 0.4673C1.3046 1.6318 3.0868 1.7071 4.0163 0.6183L4.0163 0.6183C3.0918 1.5872 1.3097 1.5119 0.4460 0.4673z"/>
</g>
<g transform="translate(62.8869, 11.4491)">
<path stroke-width="0.0800" stroke-linejoin="round" stroke-linecap="round" stroke="currentColor" fill="currentColor" d="M0.4460 0.4673C1.3046 1.6318 3.0868 1.7071 4.0163 0.6183L4.0163 0.6183C3.0918 1.5872 1.3097 1.5119 0.4460 0.4673z"/>
</g>
<g transform="translate(20.3831, 7.9491)">
<polygon stroke-linejoin="round" stroke-linecap="round" stroke-width="0.0800" fill="currentColor" stroke="currentColor" points="20.5975 -0.2000 20.5975 0.2000 0.0400 0.2000 0.0400 -0.2000"/>
</g>
<g transform="translate(20.3831, 8.7591)">
<polygon stroke-linejoin="round" stroke-linecap="round" stroke-width="0.0800" fill="currentColor" stroke="currentColor" points="20.5975 -0.2000 20.5975 0.2000 0.0400 0.2000 0.0400 -0.2000"/>
</g>
<g transform="translate(45.1851, 11.4491)">
<path stroke-width="0.0800" stroke-linejoin="round" stroke-linecap="round" stroke="currentColor" fill="currentColor" d="M0.4460 0.4673C1.3046 1.6318 3.0868 1.7071 4.0163 0.6183L4.0163 0.6183C3.0918 1.5872 1.3097 1.5119 0.4460 0.4673z"/>
</g>
<g transform="translate(92.2456, 5.4491)">
<text font-family="serif" font-size="1.5555" text-anchor="start" fill="currentColor">
<tspan>L</tspan>
</text>
</g>
<g transform="translate(92.2456, 10.9491)">
<path transform="scale(0.0028, -0.0028)" d="M208 139c61 0 117 -33 117 -99c0 -71 -52 -119 -99 -147c-34 -20 -71 -32 -110 -32c-61 0 -116 33 -116 99c0 71 51 119 98 147c34 20 71 32 110 32z" fill="currentColor"/>
</g>
<g transform="translate(93.0985, 11.4491)">
<rect x="-0.0650" y="-3.1000" width="0.1300" height="2.4856" ry="0.0400" fill="currentColor"/>
</g>
<g transform="translate(93.1635, 8.3891)">
<path transform="scale(0.0028, -0.0028)" d="M0 -212v-213v213c0 -114 85 -201 146 -295c4 13 6 26 6 40c0 94 -87 188 -152 255zM0 0c0 -177 201 -290 201 -467c0 -33 -9 -66 -23 -96c18 -36 29 -74 29 -116c0 -63 -15 -125 -41 -182c-5 -10 -14 -13 -23 -13c-14 0 -28 10 -28 26c0 2 1 3 1 5c26 51 42 107 42 164
c0 95 -90 188 -158 254v-75h-21v500h21z" fill="currentColor"/>
</g>
<g transform="translate(95.6281, 5.4491)">
<text font-family="serif" font-size="2.2001" text-anchor="start" fill="currentColor">
<tspan>R</tspan>
</text>
</g>
<g transform="translate(95.6281, 10.9491)">
<path transform="scale(0.0040, -0.0040)" d="M218 136c55 0 108 -28 108 -89c0 -71 -55 -121 -102 -149c-35 -21 -75 -34 -116 -34c-55 0 -108 28 -108 89c0 71 55 121 102 149c35 21 75 34 116 34z" fill="currentColor"/>
</g>
<g transform="translate(96.8673, 11.4491)">
<rect x="-0.0650" y="-3.6667" width="0.1300" height="2.9806" ry="0.0400" fill="currentColor"/>
</g>
<g transform="translate(26.0447, 5.4491)">
<text font-family="serif" font-size="2.2001" text-anchor="start" fill="currentColor">
<tspan>R</tspan>
</text>
</g>
<g transform="translate(19.2089, 5.4491)">
<text font-family="serif" font-size="2.2001" text-anchor="start" fill="currentColor">
<tspan>L</tspan>
</text>
</g>
<g transform="translate(19.2089, 10.9491)">
<path transform="scale(0.0040, -0.0040)" d="M218 136c55 0 108 -28 108 -89c0 -71 -55 -121 -102 -149c-35 -21 -75 -34 -116 -34c-55 0 -108 28 -108 89c0 71 55 121 102 149c35 21 75 34 116 34z" fill="currentColor"/>
</g>
<g transform="translate(20.4481, 11.4491)">
<rect x="-0.0650" y="-3.5000" width="0.1300" height="2.8139" ry="0.0400" fill="currentColor"/>
</g>
<g transform="translate(26.6968, 14.2491)">
<path transform="scale(0.0040, -0.0040)" d="M-211 88c-8 2 -14 9 -14 18c0 11 10 21 23 18l408 -105c13 0 19 -6 19 -19s-6 -19 -19 -19l-408 -105c-13 -3 -23 7 -23 18c0 9 6 16 14 18l251 65l140 23l-140 23z" fill="currentColor"/>
</g>
<g transform="translate(26.0447, 10.9491)">
<path transform="scale(0.0040, -0.0040)" d="M218 136c55 0 108 -28 108 -89c0 -71 -55 -121 -102 -149c-35 -21 -75 -34 -116 -34c-55 0 -108 28 -108 89c0 71 55 121 102 149c35 21 75 34 116 34z" fill="currentColor"/>
</g>
<g transform="translate(27.2839, 11.4491)">
<rect x="-0.0650" y="-3.5000" width="0.1300" height="2.8139" ry="0.0400" fill="currentColor"/>
</g>
<g transform="translate(16.6793, 11.4491)">
<rect x="-0.0650" y="-3.1000" width="0.1300" height="2.4856" ry="0.0400" fill="currentColor"/>
</g>
<g transform="translate(14.1664, 11.4491)">
<rect x="0.0000" y="-2.0500" width="0.1600" height="4.1000" ry="0.0500" fill="currentColor"/>
</g>
<g transform="translate(15.8264, 5.4491)">
<text font-family="serif" font-size="1.5555" text-anchor="start" fill="currentColor">
<tspan>R</tspan>
</text>
</g>
<g transform="translate(15.8264, 10.9491)">
<path transform="scale(0.0028, -0.0028)" d="M208 139c61 0 117 -33 117 -99c0 -71 -52 -119 -99 -147c-34 -20 -71 -32 -110 -32c-61 0 -116 33 -116 99c0 71 51 119 98 147c34 20 71 32 110 32z" fill="currentColor"/>
</g>
<g transform="translate(16.7443, 8.3891)">
<path transform="scale(0.0028, -0.0028)" d="M0 -212v-213v213c0 -114 85 -201 146 -295c4 13 6 26 6 40c0 94 -87 188 -152 255zM0 0c0 -177 201 -290 201 -467c0 -33 -9 -66 -23 -96c18 -36 29 -74 29 -116c0 -63 -15 -125 -41 -182c-5 -10 -14 -13 -23 -13c-14 0 -28 10 -28 26c0 2 1 3 1 5c26 51 42 107 42 164
c0 95 -90 188 -158 254v-75h-21v500h21z" fill="currentColor"/>
</g>
<g transform="translate(46.1030, 8.3891)">
<path transform="scale(0.0028, -0.0028)" d="M0 -212v-213v213c0 -114 85 -201 146 -295c4 13 6 26 6 40c0 94 -87 188 -152 255zM0 0c0 -177 201 -290 201 -467c0 -33 -9 -66 -23 -96c18 -36 29 -74 29 -116c0 -63 -15 -125 -41 -182c-5 -10 -14 -13 -23 -13c-14 0 -28 10 -28 26c0 2 1 3 1 5c26 51 42 107 42 164
c0 95 -90 188 -158 254v-75h-21v500h21z" fill="currentColor"/>
</g>
<g transform="translate(45.1851, 5.4491)">
<text font-family="serif" font-size="1.5555" text-anchor="start" fill="currentColor">
<tspan>R</tspan>
</text>
</g>
<g transform="translate(45.1851, 10.9491)">
<path transform="scale(0.0028, -0.0028)" d="M208 139c61 0 117 -33 117 -99c0 -71 -52 -119 -99 -147c-34 -20 -71 -32 -110 -32c-61 0 -116 33 -116 99c0 71 51 119 98 147c34 20 71 32 110 32z" fill="currentColor"/>
</g>
<g transform="translate(46.0380, 11.4491)">
<rect x="-0.0650" y="-3.1000" width="0.1300" height="2.4856" ry="0.0400" fill="currentColor"/>
</g>
<g transform="translate(48.5676, 5.4491)">
<text font-family="serif" font-size="2.2001" text-anchor="start" fill="currentColor">
<tspan>L</tspan>
</text>
</g>
<g transform="translate(48.5676, 10.9491)">
<path transform="scale(0.0040, -0.0040)" d="M218 136c55 0 108 -28 108 -89c0 -71 -55 -121 -102 -149c-35 -21 -75 -34 -116 -34c-55 0 -108 28 -108 89c0 71 55 121 102 149c35 21 75 34 116 34z" fill="currentColor"/>
</g>
<g transform="translate(49.8068, 11.4491)">
<rect x="-0.0650" y="-3.6667" width="0.1300" height="2.9806" ry="0.0400" fill="currentColor"/>
</g>
<g transform="translate(39.7164, 10.9491)">
<path transform="scale(0.0040, -0.0040)" d="M218 136c55 0 108 -28 108 -89c0 -71 -55 -121 -102 -149c-35 -21 -75 -34 -116 -34c-55 0 -108 28 -108 89c0 71 55 121 102 149c35 21 75 34 116 34z" fill="currentColor"/>
</g>
<g transform="translate(39.7164, 5.4491)">
<text font-family="serif" font-size="2.2001" text-anchor="start" fill="currentColor">
<tspan>R</tspan>
</text>
</g>
<g transform="translate(32.8806, 5.4491)">
<text font-family="serif" font-size="2.2001" text-anchor="start" fill="currentColor">
<tspan>L</tspan>
</text>
</g>
<g transform="translate(40.9556, 11.4491)">
<rect x="-0.0650" y="-3.5000" width="0.1300" height="2.8139" ry="0.0400" fill="currentColor"/>
</g>
<g transform="translate(34.1198, 11.4491)">
<rect x="-0.0650" y="-3.5000" width="0.1300" height="2.8139" ry="0.0400" fill="currentColor"/>
</g>
<g transform="translate(32.8806, 10.9491)">
<path transform="scale(0.0040, -0.0040)" d="M218 136c55 0 108 -28 108 -89c0 -71 -55 -121 -102 -149c-35 -21 -75 -34 -116 -34c-55 0 -108 28 -108 89c0 71 55 121 102 149c35 21 75 34 116 34z" fill="currentColor"/>
</g>
<g transform="translate(28.9706, 165.1062)">
<a xlink:href="https://lilypond.org/">
<rect x="0.0000" y="-0.4888" width="61.5604" height="2.1603" fill="none" stroke="none" stroke-width="0.0"/>
</a>
</g>
<g transform="translate(28.9706, 165.1062)">
<text font-family="serif" font-size="2.2001" text-anchor="start" fill="currentColor">
<tspan>Music engraving by LilyPond 2.22.1—www.lilypond.org</tspan>
</text>
</g>
</svg>
