<svg xmlns="http://www.w3.org/2000/svg" xmlns:xlink="http://www.w3.org/1999/xlink" version="1.2" width="210.00mm" height="297.00mm" viewBox="0 0 119.5016 169.0094">
<style type="text/css">
<![CDATA[
tspan { white-space: pre; }
]]>
</style>
<!-- Page: 1/1 -->
<g transform="translate(14.2264, 13.4491)">
<line stroke-linejoin="round" stroke-linecap="round" stroke-width="0.1000" stroke="currentColor" x1="0.0500" y1="0" x2="99.5346" y2="0"/>
</g>
<g transform="translate(14.2264, 12.4491)">
<line stroke-linejoin="round" stroke-linecap="round" stroke-width="0.1000" stroke="currentColor" x1="0.0500" y1="0" x2="99.5346" y2="0"/>
</g>
<g transform="translate(14.2264, 11.4491)">
<line stroke-linejoin="round" stroke-linecap="round" stroke-width="0.1000" stroke="currentColor" x1="0.0500" y1="0" x2="99.5346" y2="0"/>
</g>
<g transform="translate(14.2264, 10.4491)">
<line stroke-linejoin="round" stroke-linecap="round" stroke-width="0.1000" stroke="currentColor" x1="0.0500" y1="0" x2="99.5346" y2="0"/>
</g>
<g transform="translate(14.2264, 9.4491)">
<line stroke-linejoin="round" stroke-linecap="round" stroke-width="0.1000" stroke="currentColor" x1="0.0500" y1="0" x2="99.5346" y2="0"/>
</g>
<g transform="translate(113.6210, 11.4491)">
<rect x="0.0000" y="-2.0000" width="0.1900" height="4.0000" ry="0.0000" fill="currentColor"/>
</g>
<g transform="translate(79.0964, 11.4491)">
<rect x="-0.0650" y="-3.7500" width="0.1300" height="3.0639" ry="0.0400" fill="currentColor"/>
</g>
<g transform="translate(92.0768, 11.4491)">
<rect x="-0.0650" y="-3.5000" width="0.1300" height="2.8139" ry="0.0400" fill="currentColor"/>
</g>
<g transform="translate(79.1614, 7.7391)">
<path transform="scale(0.0040, -0.0040)" d="M0 0v-250h-16v250h16zM0 0c0 -197 207 -336 207 -533c0 -71 -15 -141 -41 -207c-5 -8 -13 -12 -20 -12c-13 0 -26 11 -23 27c26 61 42 126 42 192c0 103 -94 208 -165 283v250z" fill="currentColor"/>
</g>
<g transform="translate(85.8896, 5.4491)">
<text font-family="serif" font-size="1.5555" text-anchor="start" fill="currentColor">
<tspan>R</tspan>
</text>
</g>
<g transform="translate(85.8896, 10.9491)">
<path transform="scale(0.0028, -0.0028)" d="M208 139c61 0 117 -33 117 -99c0 -71 -52 -119 -99 -147c-34 -20 -71 -32 -110 -32c-61 0 -116 33 -116 99c0 71 51 119 98 147c34 20 71 32 110 32z" fill="currentColor"/>
</g>
<g transform="translate(86.7425, 11.4491)">
<rect x="-0.0650" y="-2.5000" width="0.1300" height="1.8856" ry="0.0400" fill="currentColor"/>
</g>
<g transform="translate(88.3636, 5.4491)">
<text font-family="serif" font-size="1.5555" text-anchor="start" fill="currentColor">
<tspan>R</tspan>
</text>
</g>
<g transform="translate(88.3636, 10.9491)">
<path transform="scale(0.0028, -0.0028)" d="M208 139c61 0 117 -33 117 -99c0 -71 -52 -119 -99 -147c-34 -20 -71 -32 -110 -32c-61 0 -116 33 -116 99c0 71 51 119 98 147c34 20 71 32 110 32z" fill="currentColor"/>
</g>
<g transform="translate(89.2165, 11.4491)">
<rect x="-0.0650" y="-2.5000" width="0.1300" height="1.8856" ry="0.0400" fill="currentColor"/>
</g>
<g transform="translate(90.8375, 5.4491)">
<text font-family="serif" font-size="2.2001" text-anchor="start" fill="currentColor">
<tspan>L</tspan>
</text>
</g>
<g transform="translate(90.8375, 10.9491)">
<path transform="scale(0.0040, -0.0040)" d="M218 136c55 0 108 -28 108 -89c0 -71 -55 -121 -102 -149c-35 -21 -75 -34 -116 -34c-55 0 -108 28 -108 89c0 71 55 121 102 149c35 21 75 34 116 34z" fill="currentColor"/>
</g>
<g transform="translate(64.8768, 5.4491)">
<text font-family="serif" font-size="2.2001" text-anchor="start" fill="currentColor">
<tspan>L</tspan>
</text>
</g>
<g transform="translate(64.8768, 10.9491)">
<path transform="scale(0.0040, -0.0040)" d="M218 136c55 0 108 -28 108 -89c0 -71 -55 -121 -102 -149c-35 -21 -75 -34 -116 -34c-55 0 -108 28 -108 89c0 71 55 121 102 149c35 21 75 34 116 34z" fill="currentColor"/>
</g>
<g transform="translate(66.1160, 11.4491)">
<rect x="-0.0650" y="-3.7500" width="0.1300" height="3.0639" ry="0.0400" fill="currentColor"/>
</g>
<g transform="translate(66.1810, 7.7391)">
<path transform="scale(0.0040, -0.0040)" d="M0 0v-250h-16v250h16zM0 0c0 -197 207 -336 207 -533c0 -71 -15 -141 -41 -207c-5 -8 -13 -12 -20 -12c-13 0 -26 11 -23 27c26 61 42 126 42 192c0 103 -94 208 -165 283v250z" fill="currentColor"/>
</g>
<g transform="translate(72.9093, 5.4491)">
<text font-family="serif" font-size="1.5555" text-anchor="start" fill="currentColor">
<tspan>R</tspan>
</text>
</g>
<g transform="translate(72.9093, 10.9491)">
<path transform="scale(0.0028, -0.0028)" d="M208 139c61 0 117 -33 117 -99c0 -71 -52 -119 -99 -147c-34 -20 -71 -32 -110 -32c-61 0 -116 33 -116 99c0 71 51 119 98 147c34 20 71 32 110 32z" fill="currentColor"/>
</g>
<g transform="translate(73.7621, 11.4491)">
<rect x="-0.0650" y="-2.5000" width="0.1300" height="1.8856" ry="0.0400" fill="currentColor"/>
</g>
<g transform="translate(77.8572, 10.9491)">
<path transform="scale(0.0040, -0.0040)" d="M218 136c55 0 108 -28 108 -89c0 -71 -55 -121 -102 -149c-35 -21 -75 -34 -116 -34c-55 0 -108 28 -108 89c0 71 55 121 102 149c35 21 75 34 116 34z" fill="currentColor"/>
</g>
<g transform="translate(75.3832, 5.4491)">
<text font-family="serif" font-size="1.5555" text-anchor="start" fill="currentColor">
<tspan>R</tspan>
</text>
</g>
<g transform="translate(75.3832, 10.9491)">
<path transform="scale(0.0028, -0.0028)" d="M208 139c61 0 117 -33 117 -99c0 -71 -52 -119 -99 -147c-34 -20 -71 -32 -110 -32c-61 0 -116 33 -116 99c0 71 51 119 98 147c34 20 71 32 110 32z" fill="currentColor"/>
</g>
<g transform="translate(76.2361, 11.4491)">
<rect x="-0.0650" y="-2.5000" width="0.1300" height="1.8856" ry="0.0400" fill="currentColor"/>
</g>
<g transform="translate(77.8572, 5.4491)">
<text font-family="serif" font-size="2.2001" text-anchor="start" fill="currentColor">
<tspan>L</tspan>
</text>
</g>
<g transform="translate(88.3636, 11.4491)">
<path stroke-width="0.0800" stroke-linejoin="round" stroke-linecap="round" stroke="currentColor" fill="currentColor" d="M0.4417 0.3486C1.1098 0.8838 2.3570 0.9546 3.1015 0.4996L3.1015 0.4996C2.3638 0.8348 1.1166 0.7640 0.4417 0.3486z"/>
</g>
<g transform="translate(92.0118, 7.9491)">
<polygon stroke-linejoin="round" stroke-linecap="round" stroke-width="0.0800" fill="currentColor" stroke="currentColor" points="17.1072 -0.2000 17.1072 0.2000 0.0400 0.2000 0.0400 -0.2000"/>
</g>
<g transform="translate(92.0118, 8.7591)">
<polygon stroke-linejoin="round" stroke-linecap="round" stroke-width="0.0800" fill="currentColor" stroke="currentColor" points="17.1072 -0.2000 17.1072 0.2000 0.0400 0.2000 0.0400 -0.2000"/>
</g>
<g transform="translate(86.6775, 8.9491)">
<polygon stroke-linejoin="round" stroke-linecap="round" stroke-width="0.0800" fill="currentColor" stroke="currentColor" points="2.5640 -0.1520 2.5640 0.1520 0.0400 0.1520 0.0400 -0.1520"/>
</g>
<g transform="translate(86.6775, 9.5971)">
<polygon stroke-linejoin="round" stroke-linecap="round" stroke-width="0.0800" fill="currentColor" stroke="currentColor" points="2.5640 -0.1520 2.5640 0.1520 0.0400 0.1520 0.0400 -0.1520"/>
</g>
<g transform="translate(73.6971, 8.9491)">
<polygon stroke-linejoin="round" stroke-linecap="round" stroke-width="0.0800" fill="currentColor" stroke="currentColor" points="2.5640 -0.1520 2.5640 0.1520 0.0400 0.1520 0.0400 -0.1520"/>
</g>
<g transform="translate(73.6971, 9.5971)">
<polygon stroke-linejoin="round" stroke-linecap="round" stroke-width="0.0800" fill="currentColor" stroke="currentColor" points="2.5640 -0.1520 2.5640 0.1520 0.0400 0.1520 0.0400 -0.1520"/>
</g>
<g transform="translate(75.3832, 11.4491)">
<path stroke-width="0.0800" stroke-linejoin="round" stroke-linecap="round" stroke="currentColor" fill="currentColor" d="M0.4417 0.3486C1.1098 0.8838 2.3570 0.9546 3.1015 0.4996L3.1015 0.4996C2.3638 0.8348 1.1166 0.7640 0.4417 0.3486z"/>
</g>
<g transform="translate(43.3614, 7.9491)">
<polygon stroke-linejoin="round" stroke-linecap="round" stroke-width="0.0800" fill="currentColor" stroke="currentColor" points="17.1072 -0.2000 17.1072 0.2000 0.0400 0.2000 0.0400 -0.2000"/>
</g>
<g transform="translate(43.3614, 8.7591)">
<polygon stroke-linejoin="round" stroke-linecap="round" stroke-width="0.0800" fill="currentColor" stroke="currentColor" points="17.1072 -0.2000 17.1072 0.2000 0.0400 0.2000 0.0400 -0.2000"/>
</g>
<g transform="translate(38.0271, 8.9491)">
<polygon stroke-linejoin="round" stroke-linecap="round" stroke-width="0.0800" fill="currentColor" stroke="currentColor" points="2.5640 -0.1520 2.5640 0.1520 0.0400 0.1520 0.0400 -0.1520"/>
</g>
<g transform="translate(38.0271, 9.5971)">
<polygon stroke-linejoin="round" stroke-linecap="round" stroke-width="0.0800" fill="currentColor" stroke="currentColor" points="2.5640 -0.1520 2.5640 0.1520 0.0400 0.1520 0.0400 -0.1520"/>
</g>
<g transform="translate(39.7132, 11.4491)">
<path stroke-width="0.0800" stroke-linejoin="round" stroke-linecap="round" stroke="currentColor" fill="currentColor" d="M0.4417 0.3486C1.1098 0.8838 2.3570 0.9546 3.1015 0.4996L3.1015 0.4996C2.3638 0.8348 1.1166 0.7640 0.4417 0.3486z"/>
</g>
<g transform="translate(25.0467, 8.9491)">
<polygon stroke-linejoin="round" stroke-linecap="round" stroke-width="0.0800" fill="currentColor" stroke="currentColor" points="2.5640 -0.1520 2.5640 0.1520 0.0400 0.1520 0.0400 -0.1520"/>
</g>
<g transform="translate(25.0467, 9.5971)">
<polygon stroke-linejoin="round" stroke-linecap="round" stroke-width="0.0800" fill="currentColor" stroke="currentColor" points="2.5640 -0.1520 2.5640 0.1520 0.0400 0.1520 0.0400 -0.1520"/>
</g>
<g transform="translate(26.7328, 11.4491)">
<path stroke-width="0.0800" stroke-linejoin="round" stroke-linecap="round" stroke="currentColor" fill="currentColor" d="M0.4417 0.3486C1.1098 0.8838 2.3570 0.9546 3.1015 0.4996L3.1015 0.4996C2.3638 0.8348 1.1166 0.7640 0.4417 0.3486z"/>
</g>
<g transform="translate(102.1824, 10.9491)">
<path transform="scale(0.0040, -0.0040)" d="M218 136c55 0 108 -28 108 -89c0 -71 -55 -121 -102 -149c-35 -21 -75 -34 -116 -34c-55 0 -108 28 -108 89c0 71 55 121 102 149c35 21 75 34 116 34z" fill="currentColor"/>
</g>
<g transform="translate(96.5100, 5.4491)">
<text font-family="serif" font-size="2.2001" text-anchor="start" fill="currentColor">
<tspan>R</tspan>
</text>
</g>
<g transform="translate(96.5100, 10.9491)">
<path transform="scale(0.0040, -0.0040)" d="M218 136c55 0 108 -28 108 -89c0 -71 -55 -121 -102 -149c-35 -21 -75 -34 -116 -34c-55 0 -108 28 -108 89c0 71 55 121 102 149c35 21 75 34 116 34z" fill="currentColor"/>
</g>
<g transform="translate(97.7492, 11.4491)">
<rect x="-0.0650" y="-3.5000" width="0.1300" height="2.8139" ry="0.0400" fill="currentColor"/>
</g>
<g transform="translate(102.1824, 5.4491)">
<text font-family="serif" font-size="2.2001" text-anchor="start" fill="currentColor">
<tspan>L</tspan>
</text>
</g>
<g transform="translate(103.4216, 11.4491)">
<rect x="-0.0650" y="-3.5000" width="0.1300" height="2.8139" ry="0.0400" fill="currentColor"/>
</g>
<g transform="translate(107.8548, 5.4491)">
<text font-family="serif" font-size="2.2001" text-anchor="start" fill="currentColor">
<tspan>L</tspan>
</text>
</g>
<g transform="translate(107.8548, 10.9491)">
<path transform="scale(0.0040, -0.0040)" d="M218 136c55 0 108 -28 108 -89c0 -71 -55 -121 -102 -149c-35 -21 -75 -34 -116 -34c-55 0 -108 28 -108 89c0 71 55 121 102 149c35 21 75 34 116 34z" fill="currentColor"/>
</g>
<g transform="translate(109.0940, 11.4491)">
<rect x="-0.0650" y="-3.5000" width="0.1300" height="2.8139" ry="0.0400" fill="currentColor"/>
</g>
<g transform="translate(29.2068, 10.9491)">
<path transform="scale(0.0040, -0.0040)" d="M218 136c55 0 108 -28 108 -89c0 -71 -55 -121 -102 -149c-35 -21 -75 -34 -116 -34c-55 0 -108 28 -108 89c0 71 55 121 102 149c35 21 75 34 116 34z" fill="currentColor"/>
</g>
<g transform="translate(26.7328, 5.4491)">
<text font-family="serif" font-size="1.5555" text-anchor="start" fill="currentColor">
<tspan>L</tspan>
</text>
</g>
<g transform="translate(26.7328, 10.9491)">
<path transform="scale(0.0028, -0.0028)" d="M208 139c61 0 117 -33 117 -99c0 -71 -52 -119 -99 -147c-34 -20 -71 -32 -110 -32c-61 0 -116 33 -116 99c0 71 51 119 98 147c34 20 71 32 110 32z" fill="currentColor"/>
</g>
<g transform="translate(27.5857, 11.4491)">
<rect x="-0.0650" y="-2.5000" width="0.1300" height="1.8856" ry="0.0400" fill="currentColor"/>
</g>
<g transform="translate(29.2068, 5.4491)">
<text font-family="serif" font-size="2.2001" text-anchor="start" fill="currentColor">
<tspan>R</tspan>
</text>
</g>
<g transform="translate(30.4460, 11.4491)">
<rect x="-0.0650" y="-3.7500" width="0.1300" height="3.0639" ry="0.0400" fill="currentColor"/>
</g>
<g transform="translate(30.5110, 7.7391)">
<path transform="scale(0.0040, -0.0040)" d="M0 0v-250h-16v250h16zM0 0c0 -197 207 -336 207 -533c0 -71 -15 -141 -41 -207c-5 -8 -13 -12 -20 -12c-13 0 -26 11 -23 27c26 61 42 126 42 192c0 103 -94 208 -165 283v250z" fill="currentColor"/>
</g>
<g transform="translate(37.2392, 5.4491)">
<text font-family="serif" font-size="1.5555" text-anchor="start" fill="currentColor">
<tspan>L</tspan>
</text>
</g>
<g transform="translate(38.0921, 11.4491)">
<rect x="-0.0650" y="-2.5000" width="0.1300" height="1.8856" ry="0.0400" fill="currentColor"/>
</g>
<g transform="translate(14.1664, 11.4491)">
<rect x="0.0000" y="-2.0500" width="0.1600" height="4.1000" ry="0.0500" fill="currentColor"/>
</g>
<g transform="translate(16.2264, 5.4491)">
<text font-family="serif" font-size="2.2001" text-anchor="start" fill="currentColor">
<tspan>R</tspan>
</text>
</g>
<g transform="translate(16.2264, 10.9491)">
<path transform="scale(0.0040, -0.0040)" d="M218 136c55 0 108 -28 108 -89c0 -71 -55 -121 -102 -149c-35 -21 -75 -34 -116 -34c-55 0 -108 28 -108 89c0 71 55 121 102 149c35 21 75 34 116 34z" fill="currentColor"/>
</g>
<g transform="translate(17.4656, 11.4491)">
<rect x="-0.0650" y="-3.7500" width="0.1300" height="3.0639" ry="0.0400" fill="currentColor"/>
</g>
<g transform="translate(17.5306, 7.7391)">
<path transform="scale(0.0040, -0.0040)" d="M0 0v-250h-16v250h16zM0 0c0 -197 207 -336 207 -533c0 -71 -15 -141 -41 -207c-5 -8 -13 -12 -20 -12c-13 0 -26 11 -23 27c26 61 42 126 42 192c0 103 -94 208 -165 283v250z" fill="currentColor"/>
</g>
<g transform="translate(37.2392, 10.9491)">
<path transform="scale(0.0028, -0.0028)" d="M208 139c61 0 117 -33 117 -99c0 -71 -52 -119 -99 -147c-34 -20 -71 -32 -110 -32c-61 0 -116 33 -116 99c0 71 51 119 98 147c34 20 71 32 110 32z" fill="currentColor"/>
</g>
<g transform="translate(24.2589, 5.4491)">
<text font-family="serif" font-size="1.5555" text-anchor="start" fill="currentColor">
<tspan>L</tspan>
</text>
</g>
<g transform="translate(24.2589, 10.9491)">
<path transform="scale(0.0028, -0.0028)" d="M208 139c61 0 117 -33 117 -99c0 -71 -52 -119 -99 -147c-34 -20 -71 -32 -110 -32c-61 0 -116 33 -116 99c0 71 51 119 98 147c34 20 71 32 110 32z" fill="currentColor"/>
</g>
<g transform="translate(25.1117, 11.4491)">
<rect x="-0.0650" y="-2.5000" width="0.1300" height="1.8856" ry="0.0400" fill="currentColor"/>
</g>
<g transform="translate(47.8596, 5.4491)">
<text font-family="serif" font-size="2.2001" text-anchor="start" fill="currentColor">
<tspan>L</tspan>
</text>
</g>
<g transform="translate(49.0988, 11.4491)">
<rect x="-0.0650" y="-3.5000" width="0.1300" height="2.8139" ry="0.0400" fill="currentColor"/>
</g>
<g transform="translate(53.5320, 5.4491)">
<text font-family="serif" font-size="2.2001" text-anchor="start" fill="currentColor">
<tspan>R</tspan>
</text>
</g>
<g transform="translate(53.5320, 10.9491)">
<path transform="scale(0.0040, -0.0040)" d="M218 136c55 0 108 -28 108 -89c0 -71 -55 -121 -102 -149c-35 -21 -75 -34 -116 -34c-55 0 -108 28 -108 89c0 71 55 121 102 149c35 21 75 34 116 34z" fill="currentColor"/>
</g>
<g transform="translate(54.7712, 11.4491)">
<rect x="-0.0650" y="-3.5000" width="0.1300" height="2.8139" ry="0.0400" fill="currentColor"/>
</g>
<g transform="translate(47.8596, 10.9491)">
<path transform="scale(0.0040, -0.0040)" d="M218 136c55 0 108 -28 108 -89c0 -71 -55 -121 -102 -149c-35 -21 -75 -34 -116 -34c-55 0 -108 28 -108 89c0 71 55 121 102 149c35 21 75 34 116 34z" fill="currentColor"/>
</g>
<g transform="translate(59.2044, 5.4491)">
<text font-family="serif" font-size="2.2001" text-anchor="start" fill="currentColor">
<tspan>R</tspan>
</text>
</g>
<g transform="translate(59.2044, 10.9491)">
<path transform="scale(0.0040, -0.0040)" d="M218 136c55 0 108 -28 108 -89c0 -71 -55 -121 -102 -149c-35 -21 -75 -34 -116 -34c-55 0 -108 28 -108 89c0 71 55 121 102 149c35 21 75 34 116 34z" fill="currentColor"/>
</g>
<g transform="translate(60.4436, 11.4491)">
<rect x="-0.0650" y="-3.5000" width="0.1300" height="2.8139" ry="0.0400" fill="currentColor"/>
</g>
<g transform="translate(39.7132, 5.4491)">
<text font-family="serif" font-size="1.5555" text-anchor="start" fill="currentColor">
<tspan>L</tspan>
</text>
</g>
<g transform="translate(39.7132, 10.9491)">
<path transform="scale(0.0028, -0.0028)" d="M208 139c61 0 117 -33 117 -99c0 -71 -52 -119 -99 -147c-34 -20 -71 -32 -110 -32c-61 0 -116 33 -116 99c0 71 51 119 98 147c34 20 71 32 110 32z" fill="currentColor"/>
</g>
<g transform="translate(43.4264, 11.4491)">
<rect x="-0.0650" y="-3.5000" width="0.1300" height="2.8139" ry="0.0400" fill="currentColor"/>
</g>
<g transform="translate(40.5661, 11.4491)">
<rect x="-0.0650" y="-2.5000" width="0.1300" height="1.8856" ry="0.0400" fill="currentColor"/>
</g>
<g transform="translate(42.1872, 10.9491)">
<path transform="scale(0.0040, -0.0040)" d="M218 136c55 0 108 -28 108 -89c0 -71 -55 -121 -102 -149c-35 -21 -75 -34 -116 -34c-55 0 -108 28 -108 89c0 71 55 121 102 149c35 21 75 34 116 34z" fill="currentColor"/>
</g>
<g transform="translate(42.1872, 5.4491)">
<text font-family="serif" font-size="2.2001" text-anchor="start" fill="currentColor">
<tspan>R</tspan>
</text>
</g>
<g transform="translate(28.9706, 165.1062)">
<a xlink:href="https://lilypond.org/">
<rect x="0.0000" y="-0.4888" width="61.5604" height="2.1603" fill="none" stroke="none" stroke-width="0.0"/>
</a>
</g>
<g transform="translate(28.9706, 165.1062)">
<text font-family="serif" font-size="2.2001" text-anchor="start" fill="currentColor">
<tspan>Music engraving by LilyPond 2.22.1—www.lilypond.org</tspan>
</text>
</g>
</svg>
