<svg xmlns="http://www.w3.org/2000/svg" xmlns:xlink="http://www.w3.org/1999/xlink" version="1.2" width="210.00mm" height="297.00mm" viewBox="0 0 119.5016 169.0094">
<style type="text/css">
<![CDATA[
tspan { white-space: pre; }
]]>
</style>
<!-- Page: 1/1 -->
<g transform="translate(14.2264, 6.0019)">
<line stroke-linejoin="round" stroke-linecap="round" stroke-width="0.1000" stroke="currentColor" x1="0.0500" y1="0" x2="69.6545" y2="0"/>
</g>
<g transform="translate(14.2264, 5.0019)">
<line stroke-linejoin="round" stroke-linecap="round" stroke-width="0.1000" stroke="currentColor" x1="0.0500" y1="0" x2="69.6545" y2="0"/>
</g>
<g transform="translate(51.8479, 16.6335)">
<rect x="0.0000" y="-2.0000" width="0.1900" height="4.0000" ry="0.0000" fill="currentColor"/>
</g>
<g transform="translate(83.7409, 5.5019)">
<rect x="0.0000" y="-1.0000" width="0.1900" height="2.0000" ry="0.0000" fill="currentColor"/>
</g>
<g transform="translate(83.7409, 16.6335)">
<rect x="0.0000" y="-2.0000" width="0.1900" height="4.0000" ry="0.0000" fill="currentColor"/>
</g>
<g transform="translate(51.8479, 5.5019)">
<rect x="0.0000" y="-1.0000" width="0.1900" height="2.0000" ry="0.0000" fill="currentColor"/>
</g>
<g transform="translate(14.2264, 18.6335)">
<line stroke-linejoin="round" stroke-linecap="round" stroke-width="0.1000" stroke="currentColor" x1="0.0500" y1="0" x2="69.6545" y2="0"/>
</g>
<g transform="translate(14.2264, 17.6335)">
<line stroke-linejoin="round" stroke-linecap="round" stroke-width="0.1000" stroke="currentColor" x1="0.0500" y1="0" x2="69.6545" y2="0"/>
</g>
<g transform="translate(14.2264, 16.6335)">
<line stroke-linejoin="round" stroke-linecap="round" stroke-width="0.1000" stroke="currentColor" x1="0.0500" y1="0" x2="69.6545" y2="0"/>
</g>
<g transform="translate(14.2264, 15.6335)">
<line stroke-linejoin="round" stroke-linecap="round" stroke-width="0.1000" stroke="currentColor" x1="0.0500" y1="0" x2="69.6545" y2="0"/>
</g>
<g transform="translate(14.2264, 14.6335)">
<line stroke-linejoin="round" stroke-linecap="round" stroke-width="0.1000" stroke="currentColor" x1="0.0500" y1="0" x2="69.6545" y2="0"/>
</g>
<a style="color:inherit;" xlink:href="textedit:///home/benc/projects/rudiments/./rudiments/sample.ly:13:19:20">
<g transform="translate(67.8887, 5.5019)">
<path transform="scale(0.0040, -0.0040)" d="M-23 -116c0 28 11 42 40 42c33 0 78 -13 119 -31l-132 158c-7 9 -10 17 -10 25c0 34 50 66 87 99c25 22 37 52 37 83c0 24 -8 49 -25 69l-35 42c-3 3 -4 7 -4 10c0 9 9 15 17 15c4 0 8 -1 11 -5l151 -180c7 -9 10 -17 10 -25c0 -34 -50 -66 -87 -99
c-25 -22 -37 -52 -37 -83c0 -24 7 -49 24 -69l84 -99c3 -3 4 -7 4 -10c0 -9 -8 -16 -16 -16c-4 0 -9 2 -12 6c-18 21 -63 38 -97 38c-41 0 -53 -26 -53 -67c0 -35 11 -74 28 -94c7 -8 -5 -19 -12 -11c-45 54 -92 148 -92 202z" fill="currentColor"/>
</g>
</a>
<g transform="translate(60.6703, 16.6335)">
<rect x="-0.0650" y="-0.8139" width="0.1300" height="4.8139" ry="0.0400" fill="currentColor"/>
</g>
<g transform="translate(60.6703, 5.5019)">
<rect x="-0.0650" y="-0.0796" width="0.1300" height="2.2809" ry="0.0400" fill="currentColor"/>
</g>
<a style="color:inherit;" xlink:href="textedit:///home/benc/projects/rudiments/./rudiments/sample.ly:9:18:19">
<g transform="translate(60.6053, 15.6335)">
<path transform="scale(0.0040, -0.0040)" d="M218 136c55 0 108 -28 108 -89c0 -71 -55 -121 -102 -149c-35 -21 -75 -34 -116 -34c-55 0 -108 28 -108 89c0 71 55 121 102 149c35 21 75 34 116 34z" fill="currentColor"/>
</g>
</a>
<a style="color:inherit;" xlink:href="textedit:///home/benc/projects/rudiments/./rudiments/sample.ly:5:13:14">
<g transform="translate(60.6053, 12.6335)">
<path transform="scale(0.0040, -0.0040)" d="M-23 -116c0 28 11 42 40 42c33 0 78 -13 119 -31l-132 158c-7 9 -10 17 -10 25c0 34 50 66 87 99c25 22 37 52 37 83c0 24 -8 49 -25 69l-35 42c-3 3 -4 7 -4 10c0 9 9 15 17 15c4 0 8 -1 11 -5l151 -180c7 -9 10 -17 10 -25c0 -34 -50 -66 -87 -99
c-25 -22 -37 -52 -37 -83c0 -24 7 -49 24 -69l84 -99c3 -3 4 -7 4 -10c0 -9 -8 -16 -16 -16c-4 0 -9 2 -12 6c-18 21 -63 38 -97 38c-41 0 -53 -26 -53 -67c0 -35 11 -74 28 -94c7 -8 -5 -19 -12 -11c-45 54 -92 148 -92 202z" fill="currentColor"/>
</g>
</a>
<a style="color:inherit;" xlink:href="textedit:///home/benc/projects/rudiments/./rudiments/sample.ly:13:9:10">
<g transform="translate(60.6053, 5.0019)">
<path transform="scale(0.0040, -0.0040)" d="M163 36l119 97c3 2 6 3 9 3s7 -1 10 -3l20 -16c3 -3 5 -8 5 -12s-2 -9 -5 -12l-115 -93l115 -93c3 -3 5 -8 5 -12s-2 -9 -5 -12l-20 -16c-3 -2 -7 -3 -10 -3s-6 1 -9 3l-119 97l-119 -97c-3 -2 -6 -3 -9 -3s-7 1 -10 3l-20 16c-3 3 -5 8 -5 12s2 9 5 12l115 93l-115 93
c-3 3 -5 8 -5 12s2 9 5 12l20 16c3 2 7 3 10 3s6 -1 9 -3z" fill="currentColor"/>
</g>
</a>
<g transform="translate(64.1245, 16.6335)">
<rect x="-0.0650" y="1.6861" width="0.1300" height="2.3139" ry="0.0400" fill="currentColor"/>
</g>
<g transform="translate(64.1245, 5.5019)">
<rect x="-0.0650" y="0.6861" width="0.1300" height="2.1127" ry="0.0400" fill="currentColor"/>
</g>
<a style="color:inherit;" xlink:href="textedit:///home/benc/projects/rudiments/./rudiments/sample.ly:9:24:25">
<g transform="translate(64.0595, 18.1335)">
<path transform="scale(0.0040, -0.0040)" d="M218 136c55 0 108 -28 108 -89c0 -71 -55 -121 -102 -149c-35 -21 -75 -34 -116 -34c-55 0 -108 28 -108 89c0 71 55 121 102 149c35 21 75 34 116 34z" fill="currentColor"/>
</g>
</a>
<a style="color:inherit;" xlink:href="textedit:///home/benc/projects/rudiments/./rudiments/sample.ly:13:14:15">
<g transform="translate(64.0595, 6.0019)">
<path transform="scale(0.0040, -0.0040)" d="M218 136c55 0 108 -28 108 -89c0 -71 -55 -121 -102 -149c-35 -21 -75 -34 -116 -34c-55 0 -108 28 -108 89c0 71 55 121 102 149c35 21 75 34 116 34z" fill="currentColor"/>
</g>
</a>
<g transform="translate(54.1860, 16.6335)">
<rect x="-0.0650" y="-4.3333" width="0.1300" height="2.4130" ry="0.0400" fill="currentColor"/>
</g>
<a style="color:inherit;" xlink:href="textedit:///home/benc/projects/rudiments/./rudiments/sample.ly:9:8:9">
<g transform="translate(52.9468, 18.1335)">
<path transform="scale(0.0040, -0.0040)" d="M218 136c55 0 108 -28 108 -89c0 -71 -55 -121 -102 -149c-35 -21 -75 -34 -116 -34c-55 0 -108 28 -108 89c0 71 55 121 102 149c35 21 75 34 116 34z" fill="currentColor"/>
</g>
</a>
<a style="color:inherit;" xlink:href="textedit:///home/benc/projects/rudiments/./rudiments/sample.ly:5:8:9">
<g transform="translate(53.5989, 11.5482)">
<path transform="scale(0.0040, -0.0040)" d="M0 -138c-14 0 -25 12 -25 26v87h-87c-14 0 -26 11 -26 25s12 25 26 25h87v87c0 14 11 26 25 26s25 -12 25 -26v-87h87c14 0 26 -11 26 -25s-12 -25 -26 -25h-87v-87c0 -14 -11 -26 -25 -26z" fill="currentColor"/>
</g>
</a>
<a style="color:inherit;" xlink:href="textedit:///home/benc/projects/rudiments/./rudiments/sample.ly:5:8:9">
<g transform="translate(52.9468, 15.1335)">
<path transform="scale(0.0040, -0.0040)" d="M163 36l119 97c3 2 6 3 9 3s7 -1 10 -3l20 -16c3 -3 5 -8 5 -12s-2 -9 -5 -12l-115 -93l115 -93c3 -3 5 -8 5 -12s-2 -9 -5 -12l-20 -16c-3 -2 -7 -3 -10 -3s-6 1 -9 3l-119 97l-119 -97c-3 -2 -6 -3 -9 -3s-7 1 -10 3l-20 16c-3 3 -5 8 -5 12s2 9 5 12l115 93l-115 93
c-3 3 -5 8 -5 12s2 9 5 12l20 16c3 2 7 3 10 3s6 -1 9 -3z" fill="currentColor"/>
</g>
</a>
<a style="color:inherit;" xlink:href="textedit:///home/benc/projects/rudiments/./rudiments/sample.ly:12:36:37">
<g transform="translate(52.9468, 5.5019)">
<path transform="scale(0.0040, -0.0040)" d="M-23 -116c0 28 11 42 40 42c33 0 78 -13 119 -31l-132 158c-7 9 -10 17 -10 25c0 34 50 66 87 99c25 22 37 52 37 83c0 24 -8 49 -25 69l-35 42c-3 3 -4 7 -4 10c0 9 9 15 17 15c4 0 8 -1 11 -5l151 -180c7 -9 10 -17 10 -25c0 -34 -50 -66 -87 -99
c-25 -22 -37 -52 -37 -83c0 -24 7 -49 24 -69l84 -99c3 -3 4 -7 4 -10c0 -9 -8 -16 -16 -16c-4 0 -9 2 -12 6c-18 21 -63 38 -97 38c-41 0 -53 -26 -53 -67c0 -35 11 -74 28 -94c7 -8 -5 -19 -12 -11c-45 54 -92 148 -92 202z" fill="currentColor"/>
</g>
</a>
<g transform="translate(31.9140, 12.4435)">
<polygon stroke-linejoin="round" stroke-linecap="round" stroke-width="0.0800" fill="currentColor" stroke="currentColor" points="2.5942 -0.2000 2.5942 0.2000 0.0400 0.2000 0.0400 -0.2000"/>
</g>
<g transform="translate(31.9140, 13.2535)">
<polygon stroke-linejoin="round" stroke-linecap="round" stroke-width="0.0800" fill="currentColor" stroke="currentColor" points="2.5942 -0.2000 2.5942 0.2000 0.0400 0.2000 0.0400 -0.2000"/>
</g>
<g transform="translate(56.9660, 16.6335)">
<rect x="-0.0650" y="-0.8139" width="0.1300" height="4.8139" ry="0.0400" fill="currentColor"/>
</g>
<a style="color:inherit;" xlink:href="textedit:///home/benc/projects/rudiments/./rudiments/sample.ly:9:12:13">
<g transform="translate(56.9010, 15.6335)">
<path transform="scale(0.0040, -0.0040)" d="M218 136c55 0 108 -28 108 -89c0 -71 -55 -121 -102 -149c-35 -21 -75 -34 -116 -34c-55 0 -108 28 -108 89c0 71 55 121 102 149c35 21 75 34 116 34z" fill="currentColor"/>
</g>
</a>
<g transform="translate(53.0118, 16.6335)">
<rect x="-0.0650" y="1.6861" width="0.1300" height="2.3139" ry="0.0400" fill="currentColor"/>
</g>
<g transform="translate(81.3598, 16.6335)">
<rect x="-0.0650" y="1.1861" width="0.1300" height="2.6278" ry="0.0400" fill="currentColor"/>
</g>
<a style="color:inherit;" xlink:href="textedit:///home/benc/projects/rudiments/./rudiments/sample.ly:9:48:49">
<g transform="translate(81.2948, 17.6335)">
<path transform="scale(0.0040, -0.0040)" d="M218 136c55 0 108 -28 108 -89c0 -71 -55 -121 -102 -149c-35 -21 -75 -34 -116 -34c-55 0 -108 28 -108 89c0 71 55 121 102 149c35 21 75 34 116 34z" fill="currentColor"/>
</g>
</a>
<g transform="translate(78.8556, 16.6335)">
<rect x="-0.0650" y="1.1861" width="0.1300" height="2.7770" ry="0.0400" fill="currentColor"/>
</g>
<g transform="translate(79.0742, 5.5019)">
<rect x="-0.0650" y="-0.3172" width="0.1300" height="2.3172" ry="0.0400" fill="currentColor"/>
</g>
<g transform="translate(78.7906, 19.7905)">
<polygon stroke-linejoin="round" stroke-linecap="round" stroke-width="0.0800" fill="currentColor" stroke="currentColor" points="2.5942 -0.3570 2.5942 0.0430 0.0400 0.2000 0.0400 -0.2000"/>
</g>
<g transform="translate(75.0471, 20.8235)">
<polygon stroke-linejoin="round" stroke-linecap="round" stroke-width="0.0800" fill="currentColor" stroke="currentColor" points="6.3377 -0.5800 6.3377 -0.1800 0.0400 0.2000 0.0400 -0.2000"/>
</g>
<g transform="translate(27.2856, 19.4435)">
<polygon stroke-linejoin="round" stroke-linecap="round" stroke-width="0.0800" fill="currentColor" stroke="currentColor" points="3.5442 0.9900 3.5442 1.3900 0.0400 0.2000 0.0400 -0.2000"/>
</g>
<g transform="translate(35.7482, 8.3119)">
<polygon stroke-linejoin="round" stroke-linecap="round" stroke-width="0.0800" fill="currentColor" stroke="currentColor" points="3.9192 -0.8200 3.9192 -0.4200 0.0400 0.2000 0.0400 -0.2000"/>
</g>
<g transform="translate(36.9224, 12.8235)">
<polygon stroke-linejoin="round" stroke-linecap="round" stroke-width="0.0800" fill="currentColor" stroke="currentColor" points="3.9192 -0.2000 3.9192 0.2000 0.0400 0.2000 0.0400 -0.2000"/>
</g>
<g transform="translate(44.4559, 12.4435)">
<polygon stroke-linejoin="round" stroke-linecap="round" stroke-width="0.0800" fill="currentColor" stroke="currentColor" points="6.1463 -0.2000 6.1463 0.2000 0.0400 0.2000 0.0400 -0.2000"/>
</g>
<g transform="translate(48.0080, 13.2535)">
<polygon stroke-linejoin="round" stroke-linecap="round" stroke-width="0.0800" fill="currentColor" stroke="currentColor" points="2.5942 -0.2000 2.5942 0.2000 0.0400 0.2000 0.0400 -0.2000"/>
</g>
<g transform="translate(60.6053, 7.6919)">
<polygon stroke-linejoin="round" stroke-linecap="round" stroke-width="0.0800" fill="currentColor" stroke="currentColor" points="3.5442 0.4200 3.5442 0.8200 0.0400 0.2000 0.0400 -0.2000"/>
</g>
<g transform="translate(52.9468, 20.6335)">
<polygon stroke-linejoin="round" stroke-linecap="round" stroke-width="0.0800" fill="currentColor" stroke="currentColor" points="11.2026 -0.2000 11.2026 0.2000 0.0400 0.2000 0.0400 -0.2000"/>
</g>
<g transform="translate(67.8887, 19.4435)">
<polygon stroke-linejoin="round" stroke-linecap="round" stroke-width="0.0800" fill="currentColor" stroke="currentColor" points="3.7942 -0.2000 3.7942 0.2000 0.0400 0.2000 0.0400 -0.2000"/>
</g>
<g transform="translate(75.2657, 7.5019)">
<polygon stroke-linejoin="round" stroke-linecap="round" stroke-width="0.0800" fill="currentColor" stroke="currentColor" points="3.8335 -0.2000 3.8335 0.2000 0.0400 0.2000 0.0400 -0.2000"/>
</g>
<a style="color:inherit;" xlink:href="textedit:///home/benc/projects/rudiments/./rudiments/sample.ly:9:40:41">
<g transform="translate(78.7906, 17.6335)">
<path transform="scale(0.0040, -0.0040)" d="M218 136c55 0 108 -28 108 -89c0 -71 -55 -121 -102 -149c-35 -21 -75 -34 -116 -34c-55 0 -108 28 -108 89c0 71 55 121 102 149c35 21 75 34 116 34z" fill="currentColor"/>
</g>
</a>
<g transform="translate(71.6579, 16.6335)">
<rect x="-0.0650" y="0.6861" width="0.1300" height="2.1239" ry="0.0400" fill="currentColor"/>
</g>
<a style="color:inherit;" xlink:href="textedit:///home/benc/projects/rudiments/./rudiments/sample.ly:9:32:33">
<g transform="translate(71.5929, 17.1335)">
<path transform="scale(0.0040, -0.0040)" d="M218 136c55 0 108 -28 108 -89c0 -71 -55 -121 -102 -149c-35 -21 -75 -34 -116 -34c-55 0 -108 28 -108 89c0 71 55 121 102 149c35 21 75 34 116 34z" fill="currentColor"/>
</g>
</a>
<g transform="translate(67.9537, 16.6335)">
<rect x="-0.0650" y="0.6861" width="0.1300" height="2.1239" ry="0.0400" fill="currentColor"/>
</g>
<a style="color:inherit;" xlink:href="textedit:///home/benc/projects/rudiments/./rudiments/sample.ly:9:27:28">
<g transform="translate(67.8887, 17.1335)">
<path transform="scale(0.0040, -0.0040)" d="M218 136c55 0 108 -28 108 -89c0 -71 -55 -121 -102 -149c-35 -21 -75 -34 -116 -34c-55 0 -108 28 -108 89c0 71 55 121 102 149c35 21 75 34 116 34z" fill="currentColor"/>
</g>
</a>
<a style="color:inherit;" xlink:href="textedit:///home/benc/projects/rudiments/./rudiments/sample.ly:13:26:27">
<g transform="translate(78.7906, 4.5019)">
<path transform="scale(0.0040, -0.0040)" d="M55 -171c0 26 6 53 6 79c0 89 -21 155 -57 218c-14 24 15 50 37 32c69 -57 164 -101 280 -101c13 0 25 -12 25 -25c0 -11 -8 -20 -18 -24c-97 -36 -176 -106 -226 -191c-5 -8 -13 -13 -22 -13c-14 0 -25 11 -25 25z" fill="currentColor"/>
</g>
</a>
<g transform="translate(75.1121, 16.6335)">
<rect x="-0.0650" y="1.6861" width="0.1300" height="2.5000" ry="0.0400" fill="currentColor"/>
</g>
<a style="color:inherit;" xlink:href="textedit:///home/benc/projects/rudiments/./rudiments/sample.ly:5:16:17">
<g transform="translate(67.8887, 15.6335)">
<path transform="scale(0.0040, -0.0040)" d="M365 0h-355c-6 0 -10 4 -10 10v136c0 6 4 10 10 10h355c6 0 10 -4 10 -10v-136c0 -6 -4 -10 -10 -10z" fill="currentColor"/>
</g>
</a>
<g transform="translate(75.3307, 5.5019)">
<rect x="-0.0650" y="-0.3172" width="0.1300" height="2.3172" ry="0.0400" fill="currentColor"/>
</g>
<a style="color:inherit;" xlink:href="textedit:///home/benc/projects/rudiments/./rudiments/sample.ly:9:37:38">
<g transform="translate(75.0471, 18.1335)">
<path transform="scale(0.0040, -0.0040)" d="M218 136c55 0 108 -28 108 -89c0 -71 -55 -121 -102 -149c-35 -21 -75 -34 -116 -34c-55 0 -108 28 -108 89c0 71 55 121 102 149c35 21 75 34 116 34z" fill="currentColor"/>
</g>
</a>
<a style="color:inherit;" xlink:href="textedit:///home/benc/projects/rudiments/./rudiments/sample.ly:13:22:23">
<g transform="translate(75.0471, 4.5019)">
<path transform="scale(0.0040, -0.0040)" d="M55 -171c0 26 6 53 6 79c0 89 -21 155 -57 218c-14 24 15 50 37 32c69 -57 164 -101 280 -101c13 0 25 -12 25 -25c0 -11 -8 -20 -18 -24c-97 -36 -176 -106 -226 -191c-5 -8 -13 -13 -22 -13c-14 0 -25 11 -25 25z" fill="currentColor"/>
</g>
</a>
<g transform="translate(31.9790, 16.6335)">
<rect x="-0.0650" y="-4.1900" width="0.1300" height="2.2696" ry="0.0400" fill="currentColor"/>
</g>
<a style="color:inherit;" xlink:href="textedit:///home/benc/projects/rudiments/./rudiments/sample.ly:8:16:17">
<g transform="translate(30.7398, 18.1335)">
<path transform="scale(0.0040, -0.0040)" d="M218 136c55 0 108 -28 108 -89c0 -71 -55 -121 -102 -149c-35 -21 -75 -34 -116 -34c-55 0 -108 28 -108 89c0 71 55 121 102 149c35 21 75 34 116 34z" fill="currentColor"/>
</g>
</a>
<a style="color:inherit;" xlink:href="textedit:///home/benc/projects/rudiments/./rudiments/sample.ly:4:23:24">
<g transform="translate(31.3919, 11.4515)">
<path transform="scale(0.0040, -0.0040)" d="M0 -138c-14 0 -25 12 -25 26v87h-87c-14 0 -26 11 -26 25s12 25 26 25h87v87c0 14 11 26 25 26s25 -12 25 -26v-87h87c14 0 26 -11 26 -25s-12 -25 -26 -25h-87v-87c0 -14 -11 -26 -25 -26z" fill="currentColor"/>
</g>
</a>
<a style="color:inherit;" xlink:href="textedit:///home/benc/projects/rudiments/./rudiments/sample.ly:4:23:24">
<g transform="translate(30.7398, 15.1335)">
<path transform="scale(0.0040, -0.0040)" d="M163 36l119 97c3 2 6 3 9 3s7 -1 10 -3l20 -16c3 -3 5 -8 5 -12s-2 -9 -5 -12l-115 -93l115 -93c3 -3 5 -8 5 -12s-2 -9 -5 -12l-20 -16c-3 -2 -7 -3 -10 -3s-6 1 -9 3l-119 97l-119 -97c-3 -2 -6 -3 -9 -3s-7 1 -10 3l-20 16c-3 3 -5 8 -5 12s2 9 5 12l115 93l-115 93
c-3 3 -5 8 -5 12s2 9 5 12l20 16c3 2 7 3 10 3s6 -1 9 -3z" fill="currentColor"/>
</g>
</a>
<a style="color:inherit;" xlink:href="textedit:///home/benc/projects/rudiments/./rudiments/sample.ly:4:28:29">
<g transform="translate(30.7398, 10.4395)">
<text font-family="serif" font-size="2.2001" text-anchor="start" fill="currentColor">
<tspan>h.h.</tspan>
</text>
</g>
</a>
<g transform="translate(27.3506, 16.6335)">
<rect x="-0.0650" y="-0.3139" width="0.1300" height="3.1455" ry="0.0400" fill="currentColor"/>
</g>
<g transform="translate(27.3506, 5.5019)">
<rect x="-0.0650" y="-0.0796" width="0.1300" height="3.0796" ry="0.0400" fill="currentColor"/>
</g>
<a style="color:inherit;" xlink:href="textedit:///home/benc/projects/rudiments/./rudiments/sample.ly:8:12:13">
<g transform="translate(27.2856, 16.1335)">
<path transform="scale(0.0040, -0.0040)" d="M218 136c55 0 108 -28 108 -89c0 -71 -55 -121 -102 -149c-35 -21 -75 -34 -116 -34c-55 0 -108 28 -108 89c0 71 55 121 102 149c35 21 75 34 116 34z" fill="currentColor"/>
</g>
</a>
<a style="color:inherit;" xlink:href="textedit:///home/benc/projects/rudiments/./rudiments/sample.ly:12:15:16">
<g transform="translate(27.2856, 5.0019)">
<path transform="scale(0.0040, -0.0040)" d="M163 36l119 97c3 2 6 3 9 3s7 -1 10 -3l20 -16c3 -3 5 -8 5 -12s-2 -9 -5 -12l-115 -93l115 -93c3 -3 5 -8 5 -12s-2 -9 -5 -12l-20 -16c-3 -2 -7 -3 -10 -3s-6 1 -9 3l-119 97l-119 -97c-3 -2 -6 -3 -9 -3s-7 1 -10 3l-20 16c-3 3 -5 8 -5 12s2 9 5 12l115 93l-115 93
c-3 3 -5 8 -5 12s2 9 5 12l20 16c3 2 7 3 10 3s6 -1 9 -3z" fill="currentColor"/>
</g>
</a>
<a style="color:inherit;" xlink:href="textedit:///home/benc/projects/rudiments/./rudiments/sample.ly:12:19:20">
<g transform="translate(35.7482, 6.0019)">
<path transform="scale(0.0040, -0.0040)" d="M218 136c55 0 108 -28 108 -89c0 -71 -55 -121 -102 -149c-35 -21 -75 -34 -116 -34c-55 0 -108 28 -108 89c0 71 55 121 102 149c35 21 75 34 116 34z" fill="currentColor"/>
</g>
</a>
<g transform="translate(50.5772, 16.6335)">
<rect x="-0.0650" y="-4.1900" width="0.1300" height="2.2696" ry="0.0400" fill="currentColor"/>
</g>
<g transform="translate(34.4832, 16.6335)">
<rect x="-0.0650" y="-4.1900" width="0.1300" height="2.2696" ry="0.0400" fill="currentColor"/>
</g>
<a style="color:inherit;" xlink:href="textedit:///home/benc/projects/rudiments/./rudiments/sample.ly:4:36:37">
<g transform="translate(33.2440, 15.1335)">
<path transform="scale(0.0040, -0.0040)" d="M163 36l119 97c3 2 6 3 9 3s7 -1 10 -3l20 -16c3 -3 5 -8 5 -12s-2 -9 -5 -12l-115 -93l115 -93c3 -3 5 -8 5 -12s-2 -9 -5 -12l-20 -16c-3 -2 -7 -3 -10 -3s-6 1 -9 3l-119 97l-119 -97c-3 -2 -6 -3 -9 -3s-7 1 -10 3l-20 16c-3 3 -5 8 -5 12s2 9 5 12l115 93l-115 93
c-3 3 -5 8 -5 12s2 9 5 12l20 16c3 2 7 3 10 3s6 -1 9 -3z" fill="currentColor"/>
</g>
</a>
<g transform="translate(30.8048, 16.6335)">
<rect x="-0.0650" y="1.6861" width="0.1300" height="2.2923" ry="0.0400" fill="currentColor"/>
</g>
<g transform="translate(14.3564, 5.5019)">
<path transform="scale(0.0040, -0.0040)" d="M490 -250h-92c-6 0 -10 4 -10 10v480c0 6 4 10 10 10h92c6 0 10 -4 10 -10v-480c0 -6 -4 -10 -10 -10zM270 -250h-93c-6 0 -10 4 -10 10v480c0 6 4 10 10 10h93c6 0 10 -4 10 -10v-480c0 -6 -4 -10 -10 -10z" fill="currentColor"/>
</g>
<g transform="translate(22.3214, 5.5019)">
<rect x="-0.0650" y="-0.3139" width="0.1300" height="3.3139" ry="0.0400" fill="currentColor"/>
</g>
<g transform="translate(18.5564, 16.6335)">
<path transform="scale(0.0040, -0.0040)" d="M359 27c-49 0 -75 42 -75 75c0 38 27 77 72 77c4 0 9 0 14 -1c-28 37 -72 59 -120 59c-106 0 -113 -73 -113 -186v-51v-51c0 -113 7 -187 113 -187c80 0 139 70 158 151c2 7 7 10 12 10c6 0 13 -4 13 -12c0 -94 -105 -174 -183 -174c-68 0 -137 21 -184 70
c-49 51 -66 122 -66 193s17 142 66 193c47 49 116 69 184 69c87 0 160 -63 175 -149c1 -5 1 -10 1 -14c0 -40 -30 -72 -67 -72z" fill="currentColor"/>
</g>
<g transform="translate(14.3564, 16.6335)">
<path transform="scale(0.0040, -0.0040)" d="M490 -250h-92c-6 0 -10 4 -10 10v480c0 6 4 10 10 10h92c6 0 10 -4 10 -10v-480c0 -6 -4 -10 -10 -10zM270 -250h-93c-6 0 -10 4 -10 10v480c0 6 4 10 10 10h93c6 0 10 -4 10 -10v-480c0 -6 -4 -10 -10 -10z" fill="currentColor"/>
</g>
<a style="color:inherit;" xlink:href="textedit:///home/benc/projects/rudiments/./rudiments/sample.ly:8:8:9">
<g transform="translate(22.2564, 18.1335)">
<path transform="scale(0.0040, -0.0040)" d="M218 136c55 0 108 -28 108 -89c0 -71 -55 -121 -102 -149c-35 -21 -75 -34 -116 -34c-55 0 -108 28 -108 89c0 71 55 121 102 149c35 21 75 34 116 34z" fill="currentColor"/>
</g>
</a>
<a style="color:inherit;" xlink:href="textedit:///home/benc/projects/rudiments/./rudiments/sample.ly:4:8:9">
<g transform="translate(22.2564, 14.1335)">
<path transform="scale(0.0040, -0.0040)" d="M194 171c100 0 194 -73 194 -171s-94 -171 -194 -171s-194 73 -194 171s94 171 194 171zM166 0l-96 84c-22 -24 -30 -73 -34 -84c0 -30 12 -60 34 -84zM194 24l95 83c-27 18 -60 28 -95 28s-69 -10 -96 -28zM194 -24l-96 -83c27 -18 61 -28 96 -28s68 10 95 28zM221 0
l97 -84c22 24 33 54 33 84s-11 60 -33 84z" fill="currentColor"/>
</g>
</a>
<a style="color:inherit;" xlink:href="textedit:///home/benc/projects/rudiments/./rudiments/sample.ly:4:14:15">
<g transform="translate(22.2564, 11.1735)">
<text font-family="serif" font-size="2.2001" text-anchor="start" fill="currentColor">
<tspan>crash</tspan>
</text>
</g>
</a>
<g transform="translate(18.5564, 5.5019)">
<path transform="scale(0.0040, -0.0040)" d="M359 27c-49 0 -75 42 -75 75c0 38 27 77 72 77c4 0 9 0 14 -1c-28 37 -72 59 -120 59c-106 0 -113 -73 -113 -186v-51v-51c0 -113 7 -187 113 -187c80 0 139 70 158 151c2 7 7 10 12 10c6 0 13 -4 13 -12c0 -94 -105 -174 -183 -174c-68 0 -137 21 -184 70
c-49 51 -66 122 -66 193s17 142 66 193c47 49 116 69 184 69c87 0 160 -63 175 -149c1 -5 1 -10 1 -14c0 -40 -30 -72 -67 -72z" fill="currentColor"/>
</g>
<a style="color:inherit;" xlink:href="textedit:///home/benc/projects/rudiments/./rudiments/sample.ly:12:9:10">
<g transform="translate(22.2564, 5.0019)">
<path transform="scale(0.0040, -0.0040)" d="M218 136c55 0 108 -28 108 -89c0 -71 -55 -121 -102 -149c-35 -21 -75 -34 -116 -34c-55 0 -108 28 -108 89c0 71 55 121 102 149c35 21 75 34 116 34z" fill="currentColor"/>
</g>
</a>
<g transform="translate(14.1664, 11.8177)">
<rect x="0.0000" y="-6.8658" width="0.1600" height="13.7316" ry="0.0500" fill="currentColor"/>
</g>
<g transform="translate(6.0646, 17.4537)">
<text font-family="serif" font-size="2.2001" text-anchor="start" fill="currentColor">
<tspan>drums</tspan>
</text>
</g>
<g transform="translate(4.3404, 6.3221)">
<text font-family="serif" font-size="2.2001" text-anchor="start" fill="currentColor">
<tspan>timbales</tspan>
</text>
</g>
<g transform="translate(22.3214, 16.6335)">
<rect x="-0.0650" y="1.6861" width="0.1300" height="2.6472" ry="0.0400" fill="currentColor"/>
</g>
<g transform="translate(23.7424, 16.6335)">
<rect x="-0.0650" y="-5.0000" width="0.1300" height="2.5000" ry="0.0400" fill="currentColor"/>
</g>
<g transform="translate(24.2573, 14.1335)">
<path transform="scale(0.0040, -0.0040)" d="M0 0c0 31 25 56 56 56s56 -25 56 -56s-25 -56 -56 -56s-56 25 -56 56z" fill="currentColor"/>
</g>
<a style="color:inherit;" xlink:href="textedit:///home/benc/projects/rudiments/./rudiments/sample.ly:8:29:30">
<g transform="translate(43.2816, 16.1335)">
<path transform="scale(0.0040, -0.0040)" d="M163 36l119 97c3 2 6 3 9 3s7 -1 10 -3l20 -16c3 -3 5 -8 5 -12s-2 -9 -5 -12l-115 -93l115 -93c3 -3 5 -8 5 -12s-2 -9 -5 -12l-20 -16c-3 -2 -7 -3 -10 -3s-6 1 -9 3l-119 97l-119 -97c-3 -2 -6 -3 -9 -3s-7 1 -10 3l-20 16c-3 3 -5 8 -5 12s2 9 5 12l115 93l-115 93
c-3 3 -5 8 -5 12s2 9 5 12l20 16c3 2 7 3 10 3s6 -1 9 -3z" fill="currentColor"/>
</g>
</a>
<a style="color:inherit;" xlink:href="textedit:///home/benc/projects/rudiments/./rudiments/sample.ly:8:26:27">
<g transform="translate(43.2816, 18.1335)">
<path transform="scale(0.0040, -0.0040)" d="M218 136c55 0 108 -28 108 -89c0 -71 -55 -121 -102 -149c-35 -21 -75 -34 -116 -34c-55 0 -108 28 -108 89c0 71 55 121 102 149c35 21 75 34 116 34z" fill="currentColor"/>
</g>
</a>
<a style="color:inherit;" xlink:href="textedit:///home/benc/projects/rudiments/./rudiments/sample.ly:4:48:49">
<g transform="translate(43.9338, 11.4515)">
<path transform="scale(0.0040, -0.0040)" d="M0 -138c-14 0 -25 12 -25 26v87h-87c-14 0 -26 11 -26 25s12 25 26 25h87v87c0 14 11 26 25 26s25 -12 25 -26v-87h87c14 0 26 -11 26 -25s-12 -25 -26 -25h-87v-87c0 -14 -11 -26 -25 -26z" fill="currentColor"/>
</g>
</a>
<a style="color:inherit;" xlink:href="textedit:///home/benc/projects/rudiments/./rudiments/sample.ly:4:48:49">
<g transform="translate(43.2816, 15.1335)">
<path transform="scale(0.0040, -0.0040)" d="M163 36l119 97c3 2 6 3 9 3s7 -1 10 -3l20 -16c3 -3 5 -8 5 -12s-2 -9 -5 -12l-115 -93l115 -93c3 -3 5 -8 5 -12s-2 -9 -5 -12l-20 -16c-3 -2 -7 -3 -10 -3s-6 1 -9 3l-119 97l-119 -97c-3 -2 -6 -3 -9 -3s-7 1 -10 3l-20 16c-3 3 -5 8 -5 12s2 9 5 12l115 93l-115 93
c-3 3 -5 8 -5 12s2 9 5 12l20 16c3 2 7 3 10 3s6 -1 9 -3z" fill="currentColor"/>
</g>
</a>
<a style="color:inherit;" xlink:href="textedit:///home/benc/projects/rudiments/./rudiments/sample.ly:12:29:30">
<g transform="translate(43.2816, 5.5019)">
<path transform="scale(0.0040, -0.0040)" d="M72 -250l117 326c-34 -12 -69 -22 -105 -22c-46 0 -87 33 -87 79c0 40 33 72 73 72c25 0 48 -15 56 -39c10 -28 6 -59 35 -59c16 0 54 48 61 63c6 12 23 12 28 0l-123 -420c-8 -7 -17 -10 -27 -10s-20 3 -28 10z" fill="currentColor"/>
</g>
</a>
<a style="color:inherit;" xlink:href="textedit:///home/benc/projects/rudiments/./rudiments/sample.ly:4:39:40">
<g transform="translate(35.7482, 15.1335)">
<path transform="scale(0.0040, -0.0040)" d="M163 36l119 97c3 2 6 3 9 3s7 -1 10 -3l20 -16c3 -3 5 -8 5 -12s-2 -9 -5 -12l-115 -93l115 -93c3 -3 5 -8 5 -12s-2 -9 -5 -12l-20 -16c-3 -2 -7 -3 -10 -3s-6 1 -9 3l-119 97l-119 -97c-3 -2 -6 -3 -9 -3s-7 1 -10 3l-20 16c-3 3 -5 8 -5 12s2 9 5 12l115 93l-115 93
c-3 3 -5 8 -5 12s2 9 5 12l20 16c3 2 7 3 10 3s6 -1 9 -3z" fill="currentColor"/>
</g>
</a>
<g transform="translate(48.0730, 16.6335)">
<rect x="-0.0650" y="-4.1900" width="0.1300" height="2.2696" ry="0.0400" fill="currentColor"/>
</g>
<g transform="translate(40.8166, 16.6335)">
<rect x="-0.0650" y="-3.8100" width="0.1300" height="1.8896" ry="0.0400" fill="currentColor"/>
</g>
<g transform="translate(46.8988, 5.5019)">
<rect x="-0.0650" y="-0.3139" width="0.1300" height="3.3139" ry="0.0400" fill="currentColor"/>
</g>
<a style="color:inherit;" xlink:href="textedit:///home/benc/projects/rudiments/./rudiments/sample.ly:4:53:54">
<g transform="translate(46.8338, 15.1335)">
<path transform="scale(0.0040, -0.0040)" d="M163 36l119 97c3 2 6 3 9 3s7 -1 10 -3l20 -16c3 -3 5 -8 5 -12s-2 -9 -5 -12l-115 -93l115 -93c3 -3 5 -8 5 -12s-2 -9 -5 -12l-20 -16c-3 -2 -7 -3 -10 -3s-6 1 -9 3l-119 97l-119 -97c-3 -2 -6 -3 -9 -3s-7 1 -10 3l-20 16c-3 3 -5 8 -5 12s2 9 5 12l115 93l-115 93
c-3 3 -5 8 -5 12s2 9 5 12l20 16c3 2 7 3 10 3s6 -1 9 -3z" fill="currentColor"/>
</g>
</a>
<a style="color:inherit;" xlink:href="textedit:///home/benc/projects/rudiments/./rudiments/sample.ly:12:31:32">
<g transform="translate(46.8338, 5.0019)">
<path transform="scale(0.0040, -0.0040)" d="M218 136c55 0 108 -28 108 -89c0 -71 -55 -121 -102 -149c-35 -21 -75 -34 -116 -34c-55 0 -108 28 -108 89c0 71 55 121 102 149c35 21 75 34 116 34z" fill="currentColor"/>
</g>
</a>
<g transform="translate(46.9638, 8.4619)">
<path transform="scale(0.0040, -0.0040)" d="M0 0h-16v250h16v-250zM0 0v250c97 59 224 148 224 259c0 57 -15 112 -40 163c-3 16 10 27 23 27c7 0 15 -3 20 -11c25 -56 40 -117 40 -179c0 -203 -267 -306 -267 -509z" fill="currentColor"/>
</g>
<a style="color:inherit;" xlink:href="textedit:///home/benc/projects/rudiments/./rudiments/sample.ly:4:58:59">
<g transform="translate(49.3380, 15.1335)">
<path transform="scale(0.0040, -0.0040)" d="M163 36l119 97c3 2 6 3 9 3s7 -1 10 -3l20 -16c3 -3 5 -8 5 -12s-2 -9 -5 -12l-115 -93l115 -93c3 -3 5 -8 5 -12s-2 -9 -5 -12l-20 -16c-3 -2 -7 -3 -10 -3s-6 1 -9 3l-119 97l-119 -97c-3 -2 -6 -3 -9 -3s-7 1 -10 3l-20 16c-3 3 -5 8 -5 12s2 9 5 12l115 93l-115 93
c-3 3 -5 8 -5 12s2 9 5 12l20 16c3 2 7 3 10 3s6 -1 9 -3z" fill="currentColor"/>
</g>
</a>
<g transform="translate(43.3466, 16.6335)">
<rect x="-0.0650" y="-0.0796" width="0.1300" height="4.4130" ry="0.0400" fill="currentColor"/>
</g>
<g transform="translate(44.5209, 16.6335)">
<rect x="-0.0650" y="-4.1900" width="0.1300" height="2.2696" ry="0.0400" fill="currentColor"/>
</g>
<a style="color:inherit;" xlink:href="textedit:///home/benc/projects/rudiments/./rudiments/sample.ly:4:39:40">
<g transform="translate(36.4003, 11.8315)">
<path transform="scale(0.0040, -0.0040)" d="M0 -138c-14 0 -25 12 -25 26v87h-87c-14 0 -26 11 -26 25s12 25 26 25h87v87c0 14 11 26 25 26s25 -12 25 -26v-87h87c14 0 26 -11 26 -25s-12 -25 -26 -25h-87v-87c0 -14 -11 -26 -25 -26z" fill="currentColor"/>
</g>
</a>
<a style="color:inherit;" xlink:href="textedit:///home/benc/projects/rudiments/./rudiments/sample.ly:8:19:20">
<g transform="translate(35.7482, 18.1335)">
<path transform="scale(0.0040, -0.0040)" d="M218 136c55 0 108 -28 108 -89c0 -71 -55 -121 -102 -149c-35 -21 -75 -34 -116 -34c-55 0 -108 28 -108 89c0 71 55 121 102 149c35 21 75 34 116 34z" fill="currentColor"/>
</g>
</a>
<g transform="translate(35.8132, 5.5019)">
<rect x="-0.0650" y="0.6861" width="0.1300" height="2.1137" ry="0.0400" fill="currentColor"/>
</g>
<g transform="translate(36.9874, 16.6335)">
<rect x="-0.0650" y="-3.8100" width="0.1300" height="1.8896" ry="0.0400" fill="currentColor"/>
</g>
<g transform="translate(35.8132, 16.6335)">
<rect x="-0.0650" y="1.6861" width="0.1300" height="2.6472" ry="0.0400" fill="currentColor"/>
</g>
<g transform="translate(39.6424, 5.5019)">
<rect x="-0.0650" y="-0.0796" width="0.1300" height="2.2798" ry="0.0400" fill="currentColor"/>
</g>
<a style="color:inherit;" xlink:href="textedit:///home/benc/projects/rudiments/./rudiments/sample.ly:4:44:45">
<g transform="translate(40.2295, 11.8835)">
<path transform="scale(0.0040, -0.0040)" d="M100 0c0 -65 -40 -125 -100 -125s-100 60 -100 125s40 125 100 125s100 -60 100 -125zM57 0c0 47 -16 95 -57 95s-57 -48 -57 -95s16 -95 57 -95s57 48 57 95z" fill="currentColor"/>
</g>
</a>
<a style="color:inherit;" xlink:href="textedit:///home/benc/projects/rudiments/./rudiments/sample.ly:4:44:45">
<g transform="translate(39.5774, 15.1335)">
<path transform="scale(0.0040, -0.0040)" d="M163 36l119 97c3 2 6 3 9 3s7 -1 10 -3l20 -16c3 -3 5 -8 5 -12s-2 -9 -5 -12l-115 -93l115 -93c3 -3 5 -8 5 -12s-2 -9 -5 -12l-20 -16c-3 -2 -7 -3 -10 -3s-6 1 -9 3l-119 97l-119 -97c-3 -2 -6 -3 -9 -3s-7 1 -10 3l-20 16c-3 3 -5 8 -5 12s2 9 5 12l115 93l-115 93
c-3 3 -5 8 -5 12s2 9 5 12l20 16c3 2 7 3 10 3s6 -1 9 -3z" fill="currentColor"/>
</g>
</a>
<a style="color:inherit;" xlink:href="textedit:///home/benc/projects/rudiments/./rudiments/sample.ly:12:25:26">
<g transform="translate(39.5774, 5.0019)">
<path transform="scale(0.0040, -0.0040)" d="M163 36l119 97c3 2 6 3 9 3s7 -1 10 -3l20 -16c3 -3 5 -8 5 -12s-2 -9 -5 -12l-115 -93l115 -93c3 -3 5 -8 5 -12s-2 -9 -5 -12l-20 -16c-3 -2 -7 -3 -10 -3s-6 1 -9 3l-119 97l-119 -97c-3 -2 -6 -3 -9 -3s-7 1 -10 3l-20 16c-3 3 -5 8 -5 12s2 9 5 12l115 93l-115 93
c-3 3 -5 8 -5 12s2 9 5 12l20 16c3 2 7 3 10 3s6 -1 9 -3z" fill="currentColor"/>
</g>
</a>
<g transform="translate(28.9706, 165.1062)">
<a xlink:href="https://lilypond.org/">
<rect x="0.0000" y="-0.4888" width="61.5604" height="2.1603" fill="none" stroke="none" stroke-width="0.0"/>
</a>
</g>
<g transform="translate(28.9706, 165.1062)">
<text font-family="serif" font-size="2.2001" text-anchor="start" fill="currentColor">
<tspan>Music engraving by LilyPond 2.22.1—www.lilypond.org</tspan>
</text>
</g>
</svg>
